<?xml version="1.0" encoding="UTF-8"?>
<svg width="72px" height="72px" viewBox="0 0 72 72" version="1.1" xmlns="http://www.w3.org/2000/svg" xmlns:xlink="http://www.w3.org/1999/xlink">
    <title>file-xmind</title>
    <g id="file-xmind" stroke="none" stroke-width="1" fill="none" fill-rule="evenodd">
        <g id="Xmind" transform="translate(10.000000, 10.000000)" fill-rule="nonzero">
            <path d="M3.18000974,0 C2.33958276,-0.00322931588 1.53472347,0.33303245 0.954010177,0.930022637 C0.372474597,1.5116235 0.032348413,2.28528535 0,3.10002104 L0,58.899979 C-0.00217887314,59.7220513 0.343371452,60.5080511 0.954010177,61.0699774 C1.54079305,61.6582845 2.34173529,61.9929097 3.18000974,62 L49.8200007,62 C50.6604276,62.0032293 51.4652869,61.6669675 52.0460002,61.0699774 C52.6481221,60.5022025 52.9920177,59.7199666 53,58.899979 L53,17.5670901 L34.9800035,0 L3.18000974,0 Z" id="路径" fill="#FF1B4D"></path>
            <path d="M53,18 L38.1758801,18 C36.4405966,17.9545108 35.0448038,16.5581664 35,14.8228651 L35,0 L53,18 Z" id="路径" fill="#FFBBC0"></path>
            <path d="M11.962319,24 L22.8120156,24 C22.8120156,24 23.390715,31.2916934 28.5317192,32.4436605 C29.7991598,32.8147683 31.1582805,32.7031457 32.3489332,32.1301582 C33.4220712,30.9092229 33.8700429,29.2566973 33.561388,27.6575262 C33.561388,27.490325 33.9614614,27.5567137 33.9614614,27.5567137 L42.2076223,27.5567137 C42.2076223,27.5567137 43.1093167,32.5887321 39.6383437,33.573498 C38.3319818,33.9639957 36.9823075,34.1894855 35.6204813,34.2447616 C35.1754676,34.1816251 34.7363171,34.3935403 34.5071273,34.7820184 C34.5071273,34.7820184 34.2171658,35.2627219 35.341531,35.7999786 C36.7105895,36.4491127 43.0432496,39.8373957 43.8776534,45.7582852 C43.8776534,46.0373636 44,47 44,47 L33.0487557,47 C33.0487557,47 33.6054328,44.1366795 30.6226227,40.59226 C28.859743,38.7030369 26.4207307,37.5970428 23.8446209,37.5187086 C22.8878705,37.5187086 18.9813435,38.4801154 18.9372987,42.495403 L18.9372987,43.1887963 L10.0365835,43.1887963 C10.0365835,43.1887963 9.22420205,38.3571734 15.2558895,36.6126256 C18.3830686,35.7286722 21.4955661,35.4938529 21.5432813,34.8459483 C21.6325944,33.3362198 16.3459977,32.3637481 13.9088534,29.0529186 C12.7978535,27.5918589 12.1224212,25.8439001 11.9610955,24.0122942 L11.962319,24 Z" id="路径" fill="#FFFFFF"></path>
        </g>
    </g>
</svg>