<?xml version="1.0" encoding="UTF-8"?>
<svg width="64px" height="49px" viewBox="0 0 64 49" version="1.1" xmlns="http://www.w3.org/2000/svg" xmlns:xlink="http://www.w3.org/1999/xlink">
    <!-- Generator: Sketch 57.1 (83088) - https://sketch.com -->
    <title>矩形 4备份</title>
    <desc>Created with Sketch.</desc>
    <defs>
        <rect id="path-1" x="0" y="0" width="62" height="46.5" rx="2"></rect>
        <filter x="-2.4%" y="-3.2%" width="104.8%" height="106.5%" filterUnits="objectBoundingBox" id="filter-2">
            <feOffset dx="0" dy="0" in="SourceAlpha" result="shadowOffsetOuter1"></feOffset>
            <feGaussianBlur stdDeviation="0.5" in="shadowOffsetOuter1" result="shadowBlurOuter1"></feGaussianBlur>
            <feColorMatrix values="0 0 0 0 0.262745098   0 0 0 0 0.298039216   0 0 0 0 0.403921569  0 0 0 1 0" type="matrix" in="shadowBlurOuter1"></feColorMatrix>
        </filter>
        <linearGradient x1="-2.22044605e-14%" y1="50%" x2="100%" y2="50%" id="linearGradient-3">
            <stop stop-color="#5C87BC" offset="0%"></stop>
            <stop stop-color="#7FDBFF" offset="100%"></stop>
        </linearGradient>
    </defs>
    <g id="页面-1" stroke="none" stroke-width="1" fill="none" fill-rule="evenodd">
        <g id="司南-项目管理-交互" transform="translate(-685.000000, -421.000000)">
            <g id="right" transform="translate(612.000000, 90.000000)">
                <g id="link" transform="translate(74.000000, 332.000000)">
                    <g id="矩形-4备份">
                        <g id="矩形">
                            <use fill="black" fill-opacity="1" filter="url(#filter-2)" xlink:href="#path-1"></use>
                            <use fill="#F5F7FD" fill-rule="evenodd" xlink:href="#path-1"></use>
                        </g>
                        <g id="编组-3" transform="translate(15.075000, 7.750000)" fill="url(#linearGradient-3)" fill-rule="nonzero">
                            <path d="M12.6412253,26.010211 C10.5777154,28.0737208 7.23166517,28.0737208 5.1681553,26.010211 C3.10464542,23.9467011 3.10464542,20.6006508 5.1681553,18.5371409 L9.90446589,13.8008303 C10.4306104,13.2746858 10.4306104,12.4216786 9.90446589,11.8955341 C9.37832136,11.3693896 8.52531418,11.3693896 7.99916966,11.8955341 L3.26285907,16.6318447 C0.145713645,19.7489901 0.145713645,24.7983618 3.26285907,27.9155072 C6.38000449,31.0326526 11.4293761,31.0326526 14.5465215,27.9155072 L19.2828321,23.1791966 C19.8089767,22.6530521 19.8089767,21.8000449 19.2828321,21.2739004 C18.7566876,20.7477558 17.9036804,20.7477558 17.3775359,21.2739004 L12.6412253,26.010211 L12.6412253,26.010211 Z M28.5871409,2.58785907 C25.4699955,-0.529286355 20.4206239,-0.529286355 17.3034785,2.58785907 L12.5671679,7.32416966 C12.0410233,7.85031418 12.0410233,8.70332136 12.5671679,9.22946589 C13.0933124,9.75561041 13.9463196,9.75561041 14.4724641,9.22946589 L19.2087747,4.4931553 C21.2722846,2.42964542 24.6183348,2.42964542 26.6818447,4.4931553 C28.7453546,6.55666517 28.7453546,9.90271544 26.6818447,11.9662253 L21.9455341,16.7025359 C21.4193896,17.2286804 21.4193896,18.0816876 21.9455341,18.6078321 C22.4716786,19.1339767 23.3246858,19.1339767 23.8508303,18.6078321 L28.5871409,13.8715215 C31.7042864,10.7543761 31.7042864,5.70163824 28.5871409,2.58785907 Z M9.47358618,21.7014138 C10.0525808,22.2804084 10.9883977,22.2804084 11.5673923,21.7014138 L22.3730476,10.8957585 C22.9520422,10.3167639 22.9520422,9.38094704 22.3730476,8.80195242 C21.794053,8.22295781 20.8582361,8.22295781 20.2792415,8.80195242 L9.47358618,19.6076077 C8.89459156,20.1832361 8.89459156,21.1224192 9.47358618,21.7014138 Z" id="形状"></path>
                        </g>
                    </g>
                </g>
            </g>
        </g>
    </g>
</svg>