<?xml version="1.0" encoding="UTF-8"?>
<svg width="72px" height="72px" viewBox="0 0 72 72" version="1.1" xmlns="http://www.w3.org/2000/svg" xmlns:xlink="http://www.w3.org/1999/xlink">
    <title>file-pdf备份</title>
    <g id="file-pdf备份" stroke="none" stroke-width="1" fill="none" fill-rule="evenodd">
        <g id="file-ppt" transform="translate(6.000000, 11.000000)" fill-rule="nonzero">
            <path d="M31.2537839,0 L35.0819184,0 L35.0819184,6.27939791 C39.8927005,6.30761994 47.9825987,6.30803569 59.3516129,6.28064516 L59.4199119,53.0322581 C47.7073107,53.0301945 39.5969748,53.0291627 35.088904,53.0291627 L35.088904,59.971778 L30.8975159,59.971778 C20.6006725,58.0597366 10.2968434,56.2888053 0,54.4190969 L0,5.59501412 C10.4155994,3.73236123 20.8311988,1.83443086 31.2537839,0 Z" id="路径" fill="#FF6D52"></path>
            <polygon id="路径" fill="#FFFFFF" points="35.0819184 8.37488238 57.3521604 8.37488238 57.3521604 50.9266228 35.0819184 50.9266228 35.0819184 45.3457196 51.2816334 45.3457196 51.2816334 42.5587959 35.0819184 42.5587959 35.0819184 39.0310442 51.2816334 39.0310442 51.2816334 36.2793979 35.088904 36.2793979"></polygon>
            <path d="M10.8277526,18.4289746 C14.4952172,18.6124177 18.9311029,16.9332079 22.0047875,19.7695202 C24.9108166,23.4242709 24.1423954,30.1340546 19.8322513,32.3142051 C18.3023947,33.125588 16.5420117,33.0197554 14.8794278,32.9562559 L14.8794278,41.1406397 L10.8626808,40.79492 C10.7578961,33.3443085 10.7439248,25.8866416 10.8277526,18.4289746 L10.8277526,18.4289746 Z" id="路径" fill="#FFFFFF"></path>
            <path d="M14.8375138,22.2036688 C16.1647867,22.1472248 17.8133994,21.8932267 18.7075622,23.1843838 C19.4450337,24.6124258 19.478635,26.3066811 18.7983756,27.7634054 C18.0299544,29.1745061 16.2905284,29.0545625 14.9422986,29.2238946 C14.8025856,26.888523 14.8165569,24.5531514 14.8375138,22.2036688 Z" id="路径" fill="#D24625"></path>
        </g>
        <g id="形状备份" transform="translate(37.000000, 27.000000)" fill="#FF674B" fill-rule="nonzero" stroke="#FF674B" stroke-width="0.5">
            <path d="M9.57553292,0.993344524 C9.14970254,1.08958437 8.87427183,1.30166843 8.71118785,1.65276555 C8.19837935,2.75239466 8.89601634,4.8821464 9.49580298,6.27405945 C10.6591353,2.71853252 10.2333049,1.56900127 9.97055854,1.22859743 C9.87992835,1.09741512 9.73572443,1.01153616 9.57553292,0.993344524 Z M9.65888692,8.56064643 C8.94627764,10.0503786 8.17620409,11.5128594 7.35034267,12.9449052 C8.16757459,12.7524255 9.05366416,12.5706392 10.0067994,12.4013284 C10.7479255,12.2409287 11.4944877,12.1090445 12.246486,12.007458 C11.3332158,10.8953533 10.4706827,9.74403985 9.65888692,8.56064643 Z M14.2632911,12.8005454 C14.7452948,13.3084779 15.2091781,13.7504681 15.653129,14.1247342 C17.0592752,15.311692 17.9725455,15.5701138 18.5016624,15.5701138 L18.5379033,15.5701138 C19.0072227,15.5594205 19.2464126,15.3419898 19.3243304,15.2528788 C19.592513,14.2334495 19.2011114,13.8128459 19.0706442,13.6720505 C18.3965638,12.9502519 16.6932423,12.641928 14.2632911,12.7987632 L14.2632911,12.8005454 Z M1.09879036,17.7337277 C1.30173931,17.9244251 1.51556054,17.988585 1.78193103,17.9386828 C2.29836363,17.842443 3.36746968,17.2453996 5.17588971,14.56316 C4.44245238,14.789375 3.72663475,15.0675346 3.03405354,15.3954563 C1.6569,16.0637884 1.19664077,16.6537029 1.05167721,17.0315334 C0.906713691,17.4057994 1.05167721,17.6624389 1.09879036,17.7337277 L1.09879036,17.7337277 Z M1.61703499,18.9509832 C1.14848456,18.9480851 0.701700491,18.756076 0.381220881,18.419882 L0.366724553,18.4020598 L0.352228185,18.387802 C-0.00905155752,17.9072555 -0.0990314976,17.2797177 0.113038357,16.719645 C0.593230039,15.3740697 2.56473409,14.2245384 5.99493365,13.285309 C6.13264902,13.0607494 6.26674027,12.8344076 6.40264361,12.6062836 C7.35089272,10.9746405 8.22515569,9.30246675 9.02285944,7.59468374 C8.65863858,6.86397396 8.3433429,6.11187753 8.0805965,5.3419589 C7.47537374,3.54013546 7.38658359,2.15713354 7.81603803,1.23037967 C8.11321329,0.588780817 8.66588673,0.16639494 9.41063688,0.00955962926 L9.43419346,0.00599518777 L9.45956206,0.00243074628 C9.97038287,-0.0266481734 10.4600344,0.206728433 10.7533616,0.61907855 C11.1447631,1.13235763 11.3078471,1.91831619 11.2389894,2.95734987 C11.1610715,4.12648553 10.7859784,5.64850056 10.1227702,7.48418617 C11.2933508,9.21293861 12.3968856,10.6779226 13.4243147,11.8684449 C13.6091432,11.8506227 13.7994078,11.8328005 13.9896725,11.820325 C16.9124997,11.6046765 18.8640712,11.9985469 19.7882137,12.9894607 C20.0908251,13.3138245 20.2829018,13.6987838 20.3626317,14.1372097 C20.4441737,14.5774178 20.4043087,15.0764391 20.248473,15.6164515 L20.2303525,15.6788292 L20.1977357,15.7358601 C20.0165313,16.0352729 19.4692939,16.5432054 18.5614599,16.564592 L18.5016624,16.564592 C17.5086622,16.564592 16.3380817,16.0014107 15.0189135,14.8893061 C14.3073505,14.2763335 13.6401083,13.6153096 13.0220409,12.911043 C11.4582468,13.0928294 10.2278688,13.3708555 10.2133725,13.37442 L10.1898159,13.3779844 C8.9919905,13.5882241 7.80298465,13.8444655 6.62552505,14.1461208 C6.05071258,15.083265 5.41391756,15.9822515 4.71925457,16.8372715 C3.67914122,18.0848248 2.77674325,18.7656325 1.95951134,18.9171211 C1.84667977,18.9389131 1.73201901,18.9502501 1.61703499,18.9509832 L1.61703499,18.9509832 Z"></path>
        </g>
    </g>
</svg>