<?xml version="1.0" encoding="UTF-8"?>
<svg width="72px" height="72px" viewBox="0 0 72 72" version="1.1" xmlns="http://www.w3.org/2000/svg" xmlns:xlink="http://www.w3.org/1999/xlink">
    <!-- Generator: Sketch 57.1 (83088) - https://sketch.com -->
    <title>file-pdf</title>
    <desc>Created with Sketch.</desc>
    <g id="file-pdf" stroke="none" stroke-width="1" fill="none" fill-rule="evenodd">
        <g id="pdf" transform="translate(6.000000, 10.000000)" fill-rule="nonzero">
            <path d="M59.9195795,13.4267554 L59.9161111,61.4919444 L9.17083333,61.4919444 L9.17083333,0.111944444 L46.5627894,0.108236883 L59.9195795,13.4267554 Z M45.2232832,1.44774306 L10.5141667,1.44666667 L10.5141667,60.1916667 L58.5555556,60.1916667 L58.6183449,14.7662616 L45.2255556,14.7680556 L45.2232832,1.44774306 Z" id="形状" fill="#9FA0A6"></path>
            <path d="M33.0146412,36.5045332 L55.2121721,36.5045332 L55.2121721,39.1835455 L33.0146412,39.1835455 L33.0146412,36.5045332 Z M38.0282215,43.8909529 L55.0590856,43.8909529 L55.0590856,46.5699653 L38.0282215,46.5699653 L38.0282215,43.8909529 Z M38.2195795,51.2773727 L55.1739005,51.2773727 L55.1739005,53.956385 L38.2195795,53.956385 L38.2195795,51.2773727 Z" id="形状" fill="#9FA0A6"></path>
            <path d="M37.7238663,27 L1.27468772,27 C0.585667331,27 0,26.5168739 0,25.8827709 L0,11.1172291 C0,10.4831261 0.585667331,10 1.27468772,10 L37.7238663,10 C38.4473377,10 38.998554,10.5133215 38.998554,11.1172291 L38.998554,25.8827709 C39.0330051,26.5168739 38.4473377,27 37.7238663,27 L37.7238663,27 Z" id="路径" fill="#DC2E1B"></path>
            <path d="M15.0269869,53.1144097 C15.1418017,52.6934221 15.2948881,52.2724344 15.5627894,51.92799 C15.983777,51.3156443 16.5195795,50.8181134 17.1319252,50.3588542 C18.0121721,49.7082369 18.892419,49.1724344 19.8874807,48.6749035 C19.9640239,48.6366319 20.0405671,48.5600887 20.0788387,48.4835455 C21.3035301,46.4168789 22.375135,44.2353974 23.2936535,41.9773727 C23.3319252,41.9008295 23.3319252,41.8242863 23.2936535,41.7860147 C22.9492091,40.5613233 22.6430363,39.3749035 22.4899498,38.073669 C22.4134066,37.3082369 22.3368634,36.5045332 22.5664931,35.7391011 C22.6813079,35.3181134 22.8343943,34.973669 23.2553819,34.782311 C23.4084684,34.7057677 23.5232832,34.6674961 23.6763696,34.5909529 L24.0973573,34.5909529 C24.7862461,34.7057677 25.1306906,35.165027 25.3603202,35.7773727 C25.5516782,36.3514468 25.5899498,36.9637924 25.5899498,37.5378665 C25.5899498,38.8008295 25.4368634,40.0255208 25.0541474,41.2502122 C25.0158758,41.4032986 25.0158758,41.5181134 25.092419,41.6711998 C25.5899498,42.7045332 26.2405671,43.6230517 27.0059992,44.465027 C27.5800733,45.1156443 28.2689622,45.72799 28.9961227,46.2255208 C29.0343943,46.2637924 29.1492091,46.302064 29.1874807,46.2637924 C30.1825424,46.110706 31.2541474,46.0341628 32.2874807,46.0341628 C32.8998264,46.0341628 33.5887153,46.110706 34.1627894,46.302064 C34.583777,46.4934221 34.9282215,46.7230517 35.1195795,47.1440394 C35.3109375,47.6415702 35.2343943,48.7514468 34.6603202,49.0958912 C34.3158758,49.3255208 33.9331597,49.402064 33.5121721,49.402064 C32.7084684,49.402064 31.9430363,49.210706 31.1776042,48.9810764 C30.2590856,48.6749035 29.3022955,48.2921875 28.4220486,47.7946566 C28.3455054,47.756385 28.2689622,47.756385 28.2306906,47.756385 C26.6615548,47.9860147 25.1306906,48.3304591 23.5998264,48.7131752 C22.8726659,48.9045332 22.1455054,49.0958912 21.4566165,49.2872492 C21.3418017,49.3255208 21.2652585,49.3637924 21.2652585,49.4786073 C20.6911844,50.5119406 20.0405671,51.5835455 19.275135,52.5403356 C18.7393326,53.1526813 18.2035301,53.765027 17.4763696,54.1477431 C17.24674,54.3008295 16.9405671,54.3391011 16.7109375,54.4156443 L16.3282215,54.4156443 L16.2899498,54.3773727 C15.7158758,54.2625579 15.2566165,53.9946566 15.0269869,53.382311 L15.0269869,53.1144097 L15.0269869,53.1144097 Z M26.738098,46.7995949 C25.7430363,45.8810764 24.901061,44.9242863 24.2121721,43.7761381 C23.5998264,45.2304591 22.9109375,46.6082369 22.1455054,48.0242863 C23.638098,47.5267554 25.1689622,47.1440394 26.738098,46.7995949 Z M24.1356289,35.7391011 C23.8677276,36.1983603 23.9825424,38.456385 24.3269869,39.0304591 L24.3652585,38.9921875 C24.3652585,38.9539159 24.4035301,38.8773727 24.4035301,38.8391011 C24.5183449,38.265027 24.5566165,37.6144097 24.5183449,37.0403356 C24.4800733,36.6958912 24.4035301,36.3514468 24.3269869,36.0452739 C24.2504437,35.9687307 24.2121721,35.8539159 24.1356289,35.7391011 L24.1356289,35.7391011 Z M31.4072338,47.565027 L31.4072338,47.6415702 L32.3257523,47.9860147 C32.8232832,48.1773727 33.320814,48.2539159 33.8566165,48.2156443 C34.0097029,48.2156443 34.1627894,48.1391011 34.3158758,48.1008295 L34.3158758,48.0242863 C33.3973573,47.565027 32.4022955,47.565027 31.4072338,47.565027 L31.4072338,47.565027 Z M16.5961227,53.1909529 C16.5961227,53.1909529 16.6343943,53.1909529 16.5961227,53.1909529 C17.3615548,52.6934221 17.8973573,51.9662616 18.3566165,51.2008295 C17.7825424,51.6983603 17.2850116,52.1576196 16.8257523,52.7699653 C16.7492091,52.9230517 16.6726659,53.0761381 16.5961227,53.1909529 L16.5961227,53.1909529 Z" id="形状" fill="#DC2E1B"></path>
            <path d="M7,23.716 L7,14 L10.108,14 C12.964,14 13.846,14.938 13.846,17.234 C13.846,19.684 12.754,20.566 10.108,20.566 L8.834,20.566 L8.834,23.716 L7,23.716 Z M8.834,19.082 L9.884,19.082 C11.452,19.082 11.97,18.676 11.97,17.262 C11.97,15.932 11.438,15.484 9.884,15.484 L8.834,15.484 L8.834,19.082 Z M15.694,14 L18.844,14 C21.672,14 23.562,14.812 23.562,18.858 C23.562,22.61 21.672,23.716 18.844,23.716 L15.694,23.716 L15.694,14 Z M17.528,22.134 L18.76,22.134 C20.636,22.134 21.672,21.42 21.672,18.858 C21.672,16.156 20.594,15.554 18.76,15.554 L17.528,15.554 L17.528,22.134 Z M31.36,15.596 L27.44,15.596 L27.44,18.158 L31.08,18.158 L31.08,19.754 L27.44,19.754 L27.44,23.716 L25.606,23.716 L25.606,14 L31.36,14 L31.36,15.596 Z" id="PDF" fill="#FFFFFF"></path>
        </g>
    </g>
</svg>