<?xml version="1.0" encoding="UTF-8"?>
<svg width="64px" height="49px" viewBox="0 0 64 49" version="1.1" xmlns="http://www.w3.org/2000/svg" xmlns:xlink="http://www.w3.org/1999/xlink">
    <!-- Generator: Sketch 57.1 (83088) - https://sketch.com -->
    <title>矩形 4备份 12</title>
    <desc>Created with Sketch.</desc>
    <defs>
        <rect id="path-1" x="0" y="0" width="62" height="46.5" rx="2"></rect>
        <filter x="-2.4%" y="-3.2%" width="104.8%" height="106.5%" filterUnits="objectBoundingBox" id="filter-2">
            <feOffset dx="0" dy="0" in="SourceAlpha" result="shadowOffsetOuter1"></feOffset>
            <feGaussianBlur stdDeviation="0.5" in="shadowOffsetOuter1" result="shadowBlurOuter1"></feGaussianBlur>
            <feColorMatrix values="0 0 0 0 0.262745098   0 0 0 0 0.298039216   0 0 0 0 0.403921569  0 0 0 1 0" type="matrix" in="shadowBlurOuter1"></feColorMatrix>
        </filter>
    </defs>
    <g id="页面-1" stroke="none" stroke-width="1" fill="none" fill-rule="evenodd">
        <g id="new" transform="translate(-1301.000000, -416.000000)">
            <g id="right" transform="translate(621.000000, 70.000000)">
                <g id="todo备份-3" transform="translate(681.000000, 347.000000)">
                    <g id="矩形-4备份-12">
                        <g id="矩形">
                            <use fill="black" fill-opacity="1" filter="url(#filter-2)" xlink:href="#path-1"></use>
                            <use fill="#F5F7FD" fill-rule="evenodd" xlink:href="#path-1"></use>
                        </g>
                        <g id="link" transform="translate(45.000000, 30.000000)" fill="#D6D9E0" fill-rule="nonzero">
                            <path d="M5.52768303,11.8095067 C4.60578742,12.7314023 3.11090287,12.7314023 2.18900727,11.8095067 C1.26711166,10.8876111 1.26711166,9.39272659 2.18900727,8.47083098 L4.30500582,6.35483243 C4.54006664,6.11977161 4.54006664,5.73868132 4.30500582,5.5036205 C4.069945,5.26855968 3.68885472,5.26855968 3.4537939,5.5036205 L1.33779534,7.61961906 C-0.054823468,9.01223786 -0.054823468,11.2680999 1.33779534,12.6607187 C2.73041415,14.0533375 4.98627615,14.0533375 6.37889496,12.6607187 L8.49489351,10.5447201 C8.72995433,10.3096593 8.72995433,9.92856901 8.49489351,9.69350819 C8.25983269,9.45844737 7.8787424,9.45844737 7.64368158,9.69350819 L5.52768303,11.8095067 L5.52768303,11.8095067 Z M12.6516952,1.34531488 C11.2590764,-0.047303928 9.00321442,-0.047303928 7.61059561,1.34531488 L5.49459705,3.46131344 C5.25953623,3.69637426 5.25953623,4.07746454 5.49459705,4.31252536 C5.72965787,4.54758618 6.11074816,4.54758618 6.34580898,4.31252536 L8.46180754,2.19652681 C9.38370314,1.2746312 10.8785877,1.2746312 11.8004833,2.19652681 C12.7223789,3.11842241 12.7223789,4.61330696 11.8004833,5.53520257 L9.68448474,7.65120112 C9.44942392,7.88626194 9.44942392,8.26735223 9.68448474,8.50241305 C9.91954556,8.73747387 10.3006358,8.73747387 10.5356967,8.50241305 L12.6516952,6.3864145 C14.044314,4.99379569 14.044314,2.73642978 12.6516952,1.34531488 Z" id="形状"></path>
                            <path d="M4.1125056,9.8845045 C4.37117778,10.1431767 4.7892642,10.1431767 5.04793638,9.8845045 L9.87548106,5.05695982 C10.1341532,4.79828765 10.1341532,4.38020122 9.87548106,4.12152905 C9.61680888,3.86285687 9.19872246,3.86285687 8.94005028,4.12152905 L4.1125056,8.94907373 C3.85383342,9.206242 3.85383342,9.62583233 4.1125056,9.8845045 Z" id="路径"></path>
                        </g>
                    </g>
                </g>
            </g>
        </g>
    </g>
</svg>