<?xml version="1.0" encoding="UTF-8"?>
<svg width="100px" height="101px" viewBox="0 0 100 101" version="1.1" xmlns="http://www.w3.org/2000/svg" xmlns:xlink="http://www.w3.org/1999/xlink">
    <!-- Generator: Sketch 57.1 (83088) - https://sketch.com -->
    <title>new-file</title>
    <desc>Created with Sketch.</desc>
    <g id="new-file" stroke="none" stroke-width="1" fill="none" fill-rule="evenodd" transform="translate(0.000000, 0.000000)">
        <path d="M90,100 L10,100 L10,100 C7.23858478,100 5,97.761426 5,95 L5,5 L5,5 C5,2.23858575 7.23857306,-4.97379915e-14 10,-4.97379915e-14 L90,-4.97379915e-14 L90,-4.97379915e-14 C92.7614152,-4.97379915e-14 95,2.23857403 95,5 L95,95 L95,95 C95,97.7614135 92.7614269,100 90,100 L90,100 Z M30.0000302,25.0000064 L30.0000302,35.0000064 L69.9999704,35.0000064 L69.9999704,25.0000064 L30.0000302,25.0000064 Z M30.0000302,45.0000438 L30.0000302,55.0000438 L69.9999704,55.0000438 L69.9999704,45.0000438 L30.0000302,45.0000438 Z M30.0000302,65.0000811 L30.0000302,75.0000811 L54.9999782,75.0000811 L54.9999782,65.0000811 L30.0000302,65.0000811 L30.0000302,65.0000811 Z" id="形状" fill="#3CB5A1" fill-rule="nonzero"></path>
    </g>
</svg>