<?xml version="1.0" encoding="UTF-8"?>
<svg width="50px" height="50px" viewBox="0 0 50 50" version="1.1" xmlns="http://www.w3.org/2000/svg" xmlns:xlink="http://www.w3.org/1999/xlink">
    <!-- Generator: Sketch 57.1 (83088) - https://sketch.com -->
    <title>编组 32</title>
    <desc>Created with Sketch.</desc>
    <g id="xmind-图标" stroke="none" stroke-width="1" fill="none" fill-rule="evenodd">
        <g id="icon" transform="translate(-97.000000, -911.000000)">
            <g id="符号" transform="translate(97.000000, 879.000000)">
                <g id="line1" transform="translate(0.000000, 32.000000)">
                    <g id="编组-32">
                        <circle id="椭圆" fill="#E74642" cx="25" cy="25" r="25"></circle>
                        <path d="M31.4172599,13 C30.0951094,13 28.7561773,13.3026524 27.5452116,13.8752038 C26.606771,14.318919 25.7393462,14.926812 24.9999726,15.6551711 C24.2606433,14.926812 23.3932186,14.3188747 22.4547336,13.8751635 C21.2438123,13.3026556 19.9049164,13 18.5827297,13 C16.2464598,13 14.078958,13.8831634 12.4794583,15.4868222 C10.8805389,17.0898645 10,19.2619124 10,21.6027887 C10,27.2883314 14.8286449,31.705293 22.1376266,38.3912081 L22.4328308,38.661214 L24.9999254,40.9690267 L25.5028199,40.5169407 L27.5623612,38.6655867 L27.861648,38.391828 C35.1711133,31.705671 40,27.2884677 40,21.6027637 C40,19.2618753 39.1194611,17.0898838 37.5205417,15.4867972 C35.921046,13.8831787 33.7535362,13 31.4172703,13 L31.4172703,13 L31.4172599,13 Z" id="路径" fill="#FFFFFF" fill-rule="nonzero"></path>
                    </g>
                </g>
            </g>
        </g>
    </g>
</svg>