<?xml version="1.0" encoding="UTF-8"?>
<svg width="50px" height="50px" viewBox="0 0 50 50" version="1.1" xmlns="http://www.w3.org/2000/svg" xmlns:xlink="http://www.w3.org/1999/xlink">
    <!-- Generator: Sketch 57.1 (83088) - https://sketch.com -->
    <title>编组 33</title>
    <desc>Created with Sketch.</desc>
    <g id="xmind-图标" stroke="none" stroke-width="1" fill="none" fill-rule="evenodd">
        <g id="icon" transform="translate(-157.000000, -911.000000)">
            <g id="符号" transform="translate(97.000000, 879.000000)">
                <g id="line1" transform="translate(0.000000, 32.000000)">
                    <g id="编组-33" transform="translate(60.000000, 0.000000)">
                        <circle id="椭圆" fill="#E74642" cx="25" cy="25" r="25"></circle>
                        <path d="M11,39.4545455 L16.0909091,39.4545455 L16.0909091,24.1818182 L11,24.1818182 L11,39.4545455 Z M39,25.4545455 C39,24.0558056 37.8532853,22.9090909 36.4545455,22.9090909 L28.4243924,22.9090909 L29.6341134,17.0936094 L29.6719172,16.6872187 C29.6719172,16.1642664 29.4545455,15.6822682 29.1111611,15.3388839 L27.7628263,14 L19.3861386,22.3861386 C18.9167417,22.8429343 18.6363636,23.4792979 18.6363636,24.1818182 L18.6363636,36.9090909 C18.6363636,38.3078308 19.7830783,39.4545455 21.1818182,39.4545455 L32.6363636,39.4545455 C33.6917192,39.4545455 34.5958596,38.8181818 34.9770477,37.9014401 L38.820432,28.9293429 C38.9338434,28.6363636 39,28.3307831 39,28 L39,25.4545455 L39,25.4545455 Z" id="形状备份" fill="#FFFFFF" fill-rule="nonzero" transform="translate(25.000000, 26.727273) scale(1, -1) translate(-25.000000, -26.727273) "></path>
                    </g>
                </g>
            </g>
        </g>
    </g>
</svg>