<?xml version="1.0" encoding="UTF-8"?>
<svg width="50px" height="50px" viewBox="0 0 50 50" version="1.1" xmlns="http://www.w3.org/2000/svg" xmlns:xlink="http://www.w3.org/1999/xlink">
    <!-- Generator: Sketch 57.1 (83088) - https://sketch.com -->
    <title>编组 35</title>
    <desc>Created with Sketch.</desc>
    <g id="xmind-图标" stroke="none" stroke-width="1" fill="none" fill-rule="evenodd">
        <g id="icon" transform="translate(-277.000000, -911.000000)">
            <g id="符号" transform="translate(97.000000, 879.000000)">
                <g id="line1" transform="translate(0.000000, 32.000000)">
                    <g id="编组-35" transform="translate(180.000000, 0.000000)">
                        <circle id="椭圆" fill="#E74642" cx="25" cy="25" r="25"></circle>
                        <polygon id="路径" fill="#FFFFFF" fill-rule="nonzero" points="12.0000282 20.9363401 15.7506827 20.9363401 15.7506827 35.5184469 15.8558973 35.5184469 15.8558973 35.7109738 28.7379129 35.7109738 28.7379129 39.1111257 37.9566234 39.1111257 37.9566234 30.6634903 28.7379129 30.6634903 28.7379129 34.2036897 16.9774444 34.2036897 16.9774444 26.0717215 28.9304438 26.0717215 28.9304438 28.6128872 38.0793914 28.6128872 38.0793914 20.1300788 28.9304438 20.1300788 28.9304438 24.7569898 16.9774444 24.7569898 16.9774444 20.9363269 23.8477872 20.9363269 23.8477872 10 12 10 12 20.9363269"></polygon>
                    </g>
                </g>
            </g>
        </g>
    </g>
</svg>