<?xml version="1.0" encoding="UTF-8"?>
<svg width="50px" height="50px" viewBox="0 0 50 50" version="1.1" xmlns="http://www.w3.org/2000/svg" xmlns:xlink="http://www.w3.org/1999/xlink">
    <!-- Generator: Sketch 57.1 (83088) - https://sketch.com -->
    <title>编组 36</title>
    <desc>Created with Sketch.</desc>
    <g id="xmind-图标" stroke="none" stroke-width="1" fill="none" fill-rule="evenodd">
        <g id="icon" transform="translate(-337.000000, -911.000000)">
            <g id="符号" transform="translate(97.000000, 879.000000)">
                <g id="line1" transform="translate(0.000000, 32.000000)">
                    <g id="编组-36" transform="translate(240.000000, 0.000000)">
                        <circle id="椭圆" fill="#E74642" cx="25" cy="25" r="25"></circle>
                        <path d="M36.0130591,21.2329875 C36.0130591,15.328172 31.2488397,10.5638881 25.3439597,10.5638881 C19.4391443,10.5638881 14.6748926,15.3281398 14.6748926,21.2329875 C14.6748926,24.1854468 15.8828326,26.8694198 17.8287134,28.8154875 L32.9266177,28.8154875 C34.805422,26.8023982 36.013362,24.1182994 36.013362,21.2329875 L36.0130653,21.2329875 L36.0130591,21.2329875 Z M32.3911437,20.5981009 C31.8488248,20.5981009 31.4533239,20.1506603 31.4533239,19.7050664 C31.4533239,18.4085483 30.9557903,17.3219028 29.9589732,16.4467315 C28.9629489,15.5677768 27.8942407,15.1361982 26.7654493,15.1361982 C26.2231658,15.1361982 25.8274651,14.7606809 25.8275972,14.2451746 C25.8275972,13.7298648 26.2231304,13.3541832 26.7654493,13.3541832 C28.479595,13.3541832 30.0029335,13.9256543 31.336438,15.0803656 C32.6699231,16.2350446 33.3290828,17.7692983 33.3290828,19.7050116 C33.3290828,20.1506378 32.9336141,20.5981009 32.3911308,20.5981009 L32.3911437,20.5981009 Z M31.1147093,30.2915399 L19.573107,30.2915399 C18.7678255,30.2915399 18.1639699,30.9627007 18.1639699,31.7008091 C18.1639699,32.5060906 18.8351308,33.1098785 19.573107,33.1098785 L31.1147093,33.1098785 C31.8527823,33.1098785 32.4568666,32.5059263 32.5239431,31.7008091 C32.5239431,30.8953633 31.8527823,30.2915399 31.1147093,30.2915399 Z M26.7530968,35.1231129 L23.934726,35.1231129 C22.7941267,35.1231129 21.8547245,36.0626794 21.8547245,37.2032465 C21.8547245,38.3439779 22.7941267,39.2833801 23.934726,39.2833801 L26.7530968,39.2833801 C27.8936639,39.2833801 28.7660218,38.3439779 28.833066,37.2032465 C28.833066,36.0625151 27.8936961,35.1231129 26.7530968,35.1231129 Z" id="形状" fill="#FFFFFF" fill-rule="nonzero"></path>
                    </g>
                </g>
            </g>
        </g>
    </g>
</svg>