<?xml version="1.0" encoding="UTF-8"?>
<svg width="50px" height="50px" viewBox="0 0 50 50" version="1.1" xmlns="http://www.w3.org/2000/svg" xmlns:xlink="http://www.w3.org/1999/xlink">
    <!-- Generator: Sketch 57.1 (83088) - https://sketch.com -->
    <title>编组 37</title>
    <desc>Created with Sketch.</desc>
    <g id="xmind-图标" stroke="none" stroke-width="1" fill="none" fill-rule="evenodd">
        <g id="icon" transform="translate(-397.000000, -911.000000)">
            <g id="符号" transform="translate(97.000000, 879.000000)">
                <g id="line1" transform="translate(0.000000, 32.000000)">
                    <g id="编组-37" transform="translate(300.000000, 0.000000)">
                        <circle id="椭圆" fill="#E74642" cx="25" cy="25" r="25"></circle>
                        <path d="M33.0654937,19.8625063 L33.0654938,19.8625062 C34.3077008,18.6303504 35.0064381,16.9531587 35.0064943,15.203496 L35.0064943,12.644498 L36.9939925,12.644498 L36.9939925,10 L13,10 L13,12.644498 L14.9874984,12.644498 L14.9874984,15.2049972 C14.9874984,16.9554966 15.683497,18.6264973 16.9269978,19.8640074 L21.4015081,24.3174943 C21.7765091,24.6924953 21.7765091,25.3044951 21.4015081,25.6794927 L16.9269978,30.1389912 L16.9269976,30.1389914 C15.6863269,31.3720578 14.9883173,33.0487854 14.9874982,34.7980017 L14.9874982,37.3569997 L13,37.3569997 L13,40 L37,40 L37,37.355502 L35.0065047,37.355502 L35.0065047,34.7950028 C35.0065047,33.0445034 34.3090049,31.3735027 33.0655042,30.1359926 L28.5925056,25.676494 L28.5925056,25.676494 C28.2171811,25.3000656 28.2171811,24.690924 28.5925056,24.3144956 L33.0655042,19.859497 L33.0654937,19.8625063 Z M26.9470074,27.3160157 L29.3230066,29.6770137 L20.6769976,29.6770137 L23.0529969,27.3160157 L23.052997,27.3160156 C24.3357427,26.0331644 24.3357427,23.953367 23.0529968,22.6705053 L18.5784865,18.2110067 L18.5784865,18.2110068 C17.7725544,17.4132239 17.3202869,16.325518 17.3229749,15.1915078 L17.3229749,12.3220099 L32.6829976,12.3220099 L32.6829976,15.2050078 L32.6829976,15.20504 C32.6845099,16.3388147 32.2324174,17.4260846 31.4274696,18.2245285 L26.954471,22.6855388 C25.6644726,23.9620372 25.6644726,26.0410366 26.946971,27.3175491 L26.9470074,27.3160157 Z" id="沙漏" fill="#FFFFFF" fill-rule="nonzero"></path>
                    </g>
                </g>
            </g>
        </g>
    </g>
</svg>