<?xml version="1.0" encoding="UTF-8"?>
<svg width="50px" height="50px" viewBox="0 0 50 50" version="1.1" xmlns="http://www.w3.org/2000/svg" xmlns:xlink="http://www.w3.org/1999/xlink">
    <!-- Generator: Sketch 57.1 (83088) - https://sketch.com -->
    <title>编组 38</title>
    <desc>Created with Sketch.</desc>
    <g id="xmind-图标" stroke="none" stroke-width="1" fill="none" fill-rule="evenodd">
        <g id="icon" transform="translate(-457.000000, -911.000000)">
            <g id="符号" transform="translate(97.000000, 879.000000)">
                <g id="line1" transform="translate(0.000000, 32.000000)">
                    <g id="编组-38" transform="translate(360.000000, 0.000000)">
                        <circle id="椭圆" fill="#E74642" cx="25" cy="25" r="25"></circle>
                        <path d="M34.5452686,18.7426409 C34.6277687,21.1990812 34.5865186,22.9047707 34.4173934,23.9401469 C33.9306429,26.8915878 32.2600159,27.7970264 28.6217617,28.4632147 C27.9617609,28.5869648 27.8710108,28.6014023 27.6070105,28.6570899 C25.5754456,29.0757779 20.9183152,29.618216 20.1881894,31.0722802 L20.1881894,32.1777815 L20.1881897,32.1777817 C22.1611505,33.3168695 22.8371356,35.8396902 21.6980446,37.8126349 C20.5589567,39.7855957 18.036136,40.4615809 16.0631913,39.3224898 C14.0902305,38.1834019 13.4142454,35.6605812 14.5533364,33.6876366 C14.9153797,33.0605553 15.4361133,32.539825 16.0631946,32.1777817 L16.0631946,18.6993285 L16.0631943,18.6993284 C14.0902336,17.5602405 13.4142484,15.0374198 14.5533395,13.0644751 C15.6924273,11.0915143 18.215248,10.4155292 20.1881927,11.5546202 C22.1611535,12.6937081 22.8371387,15.2165288 21.6980476,17.1894735 C21.3360043,17.8165548 20.8152708,18.3372851 20.1881895,18.6993284 L20.1881895,26.53065 C22.366192,25.5736489 24.9505075,24.9920232 26.7737596,24.6166478 C27.0810725,24.5547727 27.1800726,24.5341477 27.8771984,24.4062725 C29.9170133,24.0329596 30.2511387,23.8493969 30.3480763,23.2677712 C30.4677014,22.5335203 30.4965765,20.9660185 30.4140764,18.6477658 L30.414076,18.6477656 C28.467367,17.4665705 27.8467955,14.9309107 29.0279906,12.9841984 C29.7773912,11.7491237 31.1185592,10.9963747 32.5632164,11 L32.5632166,11 C34.8413923,11 36.6882536,12.8468003 36.6882536,15.1249857 C36.6882536,16.6317629 35.866717,18.0186637 34.5452749,18.7426471 L34.5452686,18.7426409 Z" id="路径" fill="#FFFFFF" fill-rule="nonzero"></path>
                    </g>
                </g>
            </g>
        </g>
    </g>
</svg>