<?xml version="1.0" encoding="UTF-8"?>
<svg width="50px" height="50px" viewBox="0 0 50 50" version="1.1" xmlns="http://www.w3.org/2000/svg" xmlns:xlink="http://www.w3.org/1999/xlink">
    <!-- Generator: Sketch 57.1 (83088) - https://sketch.com -->
    <title>编组 39</title>
    <desc>Created with Sketch.</desc>
    <g id="xmind-图标" stroke="none" stroke-width="1" fill="none" fill-rule="evenodd">
        <g id="icon" transform="translate(-97.000000, -971.000000)">
            <g id="符号" transform="translate(97.000000, 879.000000)">
                <g id="line2" transform="translate(0.000000, 92.000000)">
                    <g id="编组-39">
                        <circle id="椭圆" fill="#FC984F" cx="25" cy="25" r="25"></circle>
                        <path d="M12.0060663,36.5035573 L12.0060663,25.3016039 C11.9584758,23.6897329 12.1909043,22.1762602 12.7031392,20.7610364 C13.2153314,19.3459 13.9335219,18.1006864 14.8629816,17.0250485 C15.7894672,15.9525625 16.8978142,15.0616867 18.1939708,14.3525031 C19.4869868,13.6464657 20.8901395,13.1935912 22.4036375,13 L22.4036375,17.8323878 C20.5476951,18.4670419 19.2784632,19.4052516 18.5961478,20.650722 C17.9108442,21.8961049 17.5713795,23.4215077 17.5713795,25.2268994 L22.4034569,25.2268994 L22.4034569,36.5035573 L12.0061679,36.5035573 L12.0060404,36.5035573 L12.0060663,36.5035573 Z M27.6023949,36.5035573 L27.6023949,25.3016039 C27.5517025,23.6897329 27.7840461,22.1762602 28.2964937,20.7610364 C28.8088976,19.3459 29.5298929,18.1006864 30.4562938,17.0250485 C31.3828217,15.9525625 32.4941852,15.0616021 33.787283,14.3525031 C35.0803414,13.6463359 36.4864286,13.1935912 38,13 L38,17.8322467 C36.1438544,18.4668584 34.8746817,19.4052403 34.1925074,20.6507079 C33.5072038,21.8960908 33.1677815,23.4213243 33.1677815,25.2266878 L38,25.2266878 L38,36.5035573 L27.6023723,36.5035573 L27.6023723,36.5035573 L27.6023949,36.5035573 Z" id="形状" fill="#FFFFFF" fill-rule="nonzero"></path>
                    </g>
                </g>
            </g>
        </g>
    </g>
</svg>