<?xml version="1.0" encoding="UTF-8"?>
<svg width="50px" height="50px" viewBox="0 0 50 50" version="1.1" xmlns="http://www.w3.org/2000/svg" xmlns:xlink="http://www.w3.org/1999/xlink">
    <!-- Generator: Sketch 57.1 (83088) - https://sketch.com -->
    <title>编组 40</title>
    <desc>Created with Sketch.</desc>
    <g id="xmind-图标" stroke="none" stroke-width="1" fill="none" fill-rule="evenodd">
        <g id="icon" transform="translate(-157.000000, -971.000000)">
            <g id="符号" transform="translate(97.000000, 879.000000)">
                <g id="line2" transform="translate(0.000000, 92.000000)">
                    <g id="编组-40" transform="translate(60.000000, 0.000000)">
                        <circle id="椭圆" fill="#FC984F" cx="25" cy="25" r="25"></circle>
                        <path d="M20,24.6199853 L20,24.6199847 C20,27.2083629 22.0982927,29.3066444 24.6866598,29.3066444 C27.275038,29.3066444 29.3733195,27.2083518 29.3733195,24.6199847 C29.3733195,24.6199847 29.3733195,24.6199846 29.3733195,24.6199846 L29.3733195,24.6199846 C29.3733195,22.0316064 27.2750231,19.9333248 24.6866598,19.9333248 C22.0982815,19.9333248 20,22.0316212 20,24.6199846 L20,24.6199853 Z M20,38.5533472 L20,38.5533466 C20,41.1417248 22.0982927,43.2400064 24.6866598,43.2400064 C27.275038,43.2400064 29.3733195,41.1417137 29.3733195,38.5533466 C29.3733195,38.5533466 29.3733195,38.5533465 29.3733195,38.5533465 L29.3733195,38.5533465 C29.3733195,35.9649683 27.2750231,33.8666867 24.6866598,33.8666867 C22.0982815,33.8666867 20,35.9649831 20,38.5533465 L20,38.5533472 Z M20,10.6866605 L20,10.6866599 C20,13.2750381 22.0982927,15.3733196 24.6866598,15.3733196 C27.275038,15.3733196 29.3733195,13.275027 29.3733195,10.6866599 C29.3733195,10.6866598 29.3733195,10.6866598 29.3733195,10.6866598 L29.3733195,10.6866598 C29.3733195,8.09828154 27.2750231,6 24.6866598,6 C22.0982815,6 20,8.09829639 20,10.6866598 L20,10.6866605 Z" id="形状" fill="#FFFFFF" fill-rule="nonzero" transform="translate(24.686660, 24.620003) rotate(90.000000) translate(-24.686660, -24.620003) "></path>
                    </g>
                </g>
            </g>
        </g>
    </g>
</svg>