<?xml version="1.0" encoding="UTF-8"?>
<svg width="50px" height="50px" viewBox="0 0 50 50" version="1.1" xmlns="http://www.w3.org/2000/svg" xmlns:xlink="http://www.w3.org/1999/xlink">
    <!-- Generator: Sketch 57.1 (83088) - https://sketch.com -->
    <title>编组 41</title>
    <desc>Created with Sketch.</desc>
    <g id="xmind-图标" stroke="none" stroke-width="1" fill="none" fill-rule="evenodd">
        <g id="icon" transform="translate(-217.000000, -971.000000)">
            <g id="符号" transform="translate(97.000000, 879.000000)">
                <g id="line2" transform="translate(0.000000, 92.000000)">
                    <g id="编组-41" transform="translate(120.000000, 0.000000)">
                        <circle id="椭圆" fill="#FC984F" cx="25" cy="25" r="25"></circle>
                        <path d="M31.75002,12.2500028 C30.2500181,10.7500009 28.0000152,10 25.500012,10 C24.2500105,10 23,10.2500003 22,10.5 C20.750006,11 19.7500048,11.5 18.7500035,12.5 C18,13.2500041 17.2500016,14.2500054 16.750001,15.2500066 C16.2500003,16.2500079 16,17.7500098 16,19.7500123 L16,20.250013 L21,20.250013 L21,19.7500123 C21,16.5 22.7500086,14.750006 25.500012,14.750006 C26.7500136,14.750006 27.5000146,15 28.0000152,15.7500073 C28.5000158,16.5 29.0000165,17 29.0000165,18.0000101 C29.0000165,20.5000133 27.5000146,20.7500136 26.250013,22.5000158 C23.5,26.2500206 23.2500092,30.0000253 23.2500092,31.5000272 L23.2500092,32.5000285 L28.2500155,32.5000285 C28.2500155,32.5000285 28.2500155,27.7500225 30.7500187,25.000019 C32.0000203,23.5000171 33.0000215,22.5000158 33.5000222,21.7500149 C34.0000228,20.7500136 34.2500231,19.7500123 34.2500231,18.5000108 C34.5000234,16 33.5000222,13.7500047 31.75002,12.2500028 Z M23.5000095,35.0000317 L28.5000095,35.0000317 L28.5000095,40.0000317 L23.5000095,40.0000317 L23.5000095,35.0000317 Z" id="形状" fill="#FFFFFF" fill-rule="nonzero"></path>
                    </g>
                </g>
            </g>
        </g>
    </g>
</svg>