<?xml version="1.0" encoding="UTF-8"?>
<svg width="50px" height="50px" viewBox="0 0 50 50" version="1.1" xmlns="http://www.w3.org/2000/svg" xmlns:xlink="http://www.w3.org/1999/xlink">
    <!-- Generator: Sketch 57.1 (83088) - https://sketch.com -->
    <title>编组 53</title>
    <desc>Created with Sketch.</desc>
    <g id="xmind-图标" stroke="none" stroke-width="1" fill="none" fill-rule="evenodd">
        <g id="icon" transform="translate(-97.000000, -1091.000000)">
            <g id="符号" transform="translate(97.000000, 879.000000)">
                <g id="line4" transform="translate(0.000000, 212.000000)">
                    <g id="编组-53">
                        <circle id="椭圆" fill="#00AAEF" cx="25" cy="25" r="25"></circle>
                        <path d="M39.240334,32.1766622 C39.240334,33.6255837 38.6606826,33.9152092 36.4392997,33.9152092 C35.8596483,28.3127335 33.058614,25.6081077 30.1607778,24.2559813 C32.0925385,21.6481641 32.1893506,17.8806439 30.3539945,15.0796096 C32.5757846,14.4035532 34.8939762,15.9488831 35.473614,18.3638902 C35.9564533,20.4888681 34.9907747,22.8070564 33.0590139,23.6767336 C36.7289113,24.6420085 39.240334,28.1194927 39.240334,32.176652 L39.240334,32.1766622 Z M27.3593364,24.7388307 C30.9332324,25.5116992 35.0868001,28.0231114 35.0868001,35.2677359 C35.0868001,37.1994967 32.6722001,37.1994967 24.8479344,37.1994967 C16.9272807,37.1994967 14.6090687,37.1994967 14.6090687,35.2677359 C14.6090687,28.1195368 18.7626364,25.5116925 22.3365324,24.7388307 C19.5354981,23.1935008 18.5694125,19.6195844 19.9219324,16.7217686 C21.2744489,13.8239222 24.6551379,12.7614247 27.2629483,14.3067614 C29.8707655,15.8520914 30.9336598,19.4263809 29.4847383,22.2274152 C29.0014954,23.3867145 28.2286269,24.159176 27.3593533,24.7388273 L27.3593364,24.7388307 Z M19.3418722,24.2559915 C16.4440207,25.6085079 13.6429831,28.4095592 13.0633452,33.9152194 C10.8415552,33.9152194 10.2623109,33.6255969 10.2623109,32.1766724 C10.0690942,28.119513 12.676911,24.545617 16.3476089,23.6763469 C14.222631,22.6138562 13.2565454,20.0056354 14.222631,17.6874234 C15.0919046,15.6588505 17.1204774,14.5963599 19.1490605,15.1760112 C17.3132977,17.8806405 17.4101098,21.5513486 19.3418722,24.2559745 L19.3418722,24.2559915 Z" id="形状" fill="#FFFFFF" fill-rule="nonzero"></path>
                    </g>
                </g>
            </g>
        </g>
    </g>
</svg>