<?xml version="1.0" encoding="UTF-8"?>
<svg width="50px" height="50px" viewBox="0 0 50 50" version="1.1" xmlns="http://www.w3.org/2000/svg" xmlns:xlink="http://www.w3.org/1999/xlink">
    <!-- Generator: Sketch 57.1 (83088) - https://sketch.com -->
    <title>编组 54</title>
    <desc>Created with Sketch.</desc>
    <g id="xmind-图标" stroke="none" stroke-width="1" fill="none" fill-rule="evenodd">
        <g id="icon" transform="translate(-157.000000, -1091.000000)">
            <g id="符号" transform="translate(97.000000, 879.000000)">
                <g id="line4" transform="translate(0.000000, 212.000000)">
                    <g id="编组-54" transform="translate(60.000000, 0.000000)">
                        <circle id="椭圆" fill="#00AAEF" cx="25" cy="25" r="25"></circle>
                        <path d="M10.2020672,32.4575666 L10.3166753,32.2883832 C10.2566424,32.3484162 10.6332109,31.9118145 10.6332109,31.9118145 L10.6332105,31.9118149 C11.0271345,31.4908113 11.4541919,31.1020799 11.9102744,30.7493609 C12.6743278,30.1217435 13.6239402,29.4068074 14.3661646,28.9210881 C15.2666569,28.3316749 15.8942743,27.9551062 15.85607,27.9769351 L16.5164324,27.6494837 L16.5164324,27.6494837 C16.8737961,27.5081021 17.2690509,27.4946058 17.6352256,27.6112808 L17.6352256,27.6112808 C17.9287957,27.7124625 18.1790674,27.9107568 18.3447052,28.1734057 L18.3447052,28.1734057 C18.6539518,28.5190097 18.9096569,28.9090052 19.1033021,29.3304031 C19.337976,29.7506326 19.6108531,30.3455052 19.9437611,30.929459 C20.3912789,31.7208008 21.5537329,32.506686 22.7161869,31.8572396 L22.7161879,31.857239 C24.636282,30.8222157 26.4185253,29.5497125 28.0209183,28.0697198 C30.27488,25.9521969 31.5028208,24.331315 32.2013816,22.792272 L32.2013816,22.7922719 C32.5237274,21.9675533 32.1852998,21.0316285 31.4100399,20.6037999 C30.4931752,20.1617386 29.9637923,20.0525881 29.3852951,19.7033077 C28.8613716,19.3813127 28.9650656,19.4904638 28.348364,19.0920626 C28.3265339,19.07569 28.1300627,18.9065065 28.102775,18.8846764 L28.020912,18.8028134 L28.0209119,18.8028134 C27.6452565,18.4783337 27.5275907,17.9455093 27.7316627,17.4930047 L27.8135257,17.2474156 L27.8135256,17.2474159 C28.1484428,16.5185949 28.5219035,15.8081122 28.9323188,15.1189771 L28.9323176,15.1189791 C29.3243252,14.4661521 29.7524988,13.8357339 30.214838,13.2306731 L30.2148383,13.2306726 C30.7538962,12.455454 31.460923,11.8118555 32.2832497,11.3478202 C32.2832497,11.3478202 32.5561262,11.2059243 32.6925633,11.1458914 L32.6925633,11.1458914 C33.1857105,10.9388238 33.7439039,10.952729 34.2261295,11.1840942 L34.2261294,11.1840942 C35.1337395,11.5482916 35.9649381,12.0795938 36.6765603,12.7504053 C38.4447999,14.1911934 39.6891218,16.1886441 39.4380731,17.9350751 C39.0560449,20.6638401 35.590509,26.6780443 31.0662161,30.9294538 C26.5419231,35.1808633 20.1347865,38.433575 17.2313841,38.7937568 C15.2830449,39.0393458 13.6348717,38.0515323 11.9866986,36.5561675 L11.9866974,36.5561665 C11.2868348,35.9218748 10.7031971,35.1701667 10.2621186,34.3349525 C10.0438173,33.8765187 9.83097315,32.9760265 10.2020857,32.4575624 L10.2020672,32.4575666 Z" id="路径" fill="#FFFFFF" fill-rule="nonzero" transform="translate(24.735141, 24.915591) scale(-1, 1) translate(-24.735141, -24.915591) "></path>
                    </g>
                </g>
            </g>
        </g>
    </g>
</svg>