<?xml version="1.0" encoding="UTF-8"?>
<svg width="50px" height="50px" viewBox="0 0 50 50" version="1.1" xmlns="http://www.w3.org/2000/svg" xmlns:xlink="http://www.w3.org/1999/xlink">
    <!-- Generator: Sketch 57.1 (83088) - https://sketch.com -->
    <title>编组 55</title>
    <desc>Created with Sketch.</desc>
    <g id="xmind-图标" stroke="none" stroke-width="1" fill="none" fill-rule="evenodd">
        <g id="icon" transform="translate(-217.000000, -1091.000000)">
            <g id="符号" transform="translate(97.000000, 879.000000)">
                <g id="line4" transform="translate(0.000000, 212.000000)">
                    <g id="编组-55" transform="translate(120.000000, 0.000000)">
                        <circle id="椭圆" fill="#00AAEF" cx="25" cy="25" r="25"></circle>
                        <path d="M39.8292745,18.5514873 L31.4485124,10.1707252 C31.1752321,9.89744519 30.8142951,9.95885101 30.6469518,10.3075996 L29.5233635,12.6485288 L37.3514706,20.4766359 L39.6923998,19.3530477 C40.041149,19.1857046 40.1025551,18.8252364 39.8292742,18.551487 L39.8292745,18.5514873 Z M28.0290183,13.9661853 L20.3124735,14.6093088 C19.7996621,14.6725899 19.3726348,14.7822769 19.2259164,15.4516506 C19.2259164,15.4525881 19.2254476,15.4530569 19.2254476,15.4535256 C17.1329554,25.5044108 10,35.3120446 10,35.3120446 L11.6809307,36.9929754 L19.6491937,29.0247124 C19.4734132,28.6576819 19.3749762,28.2465891 19.3749762,27.8120618 C19.3749762,26.2586308 20.6340329,24.9995712 22.1874639,24.9995712 C23.7408949,24.9995712 24.9999516,26.2586279 24.9999516,27.8120618 C24.9999516,29.3654928 23.7408949,30.6245524 22.1874639,30.6245524 C21.7534024,30.6245524 21.3423096,30.5261152 20.9748134,30.3503346 L13.0065503,38.3185976 L14.6874811,39.9995284 C14.6874811,39.9995284 24.4955543,32.8665759 34.5460001,30.7740807 C34.5469376,30.7740807 34.5474063,30.773612 34.5478751,30.773612 C35.2172485,30.6268938 35.3269358,30.1998633 35.3902169,29.6870549 L36.0333404,21.97051 L28.028515,13.9656846 L28.0290183,13.9661853 Z" id="形状" fill="#FFFFFF" fill-rule="nonzero"></path>
                    </g>
                </g>
            </g>
        </g>
    </g>
</svg>