<?xml version="1.0" encoding="UTF-8"?>
<svg width="50px" height="50px" viewBox="0 0 50 50" version="1.1" xmlns="http://www.w3.org/2000/svg" xmlns:xlink="http://www.w3.org/1999/xlink">
    <!-- Generator: Sketch 57.1 (83088) - https://sketch.com -->
    <title>编组 56</title>
    <desc>Created with Sketch.</desc>
    <g id="xmind-图标" stroke="none" stroke-width="1" fill="none" fill-rule="evenodd">
        <g id="icon" transform="translate(-277.000000, -1091.000000)">
            <g id="符号" transform="translate(97.000000, 879.000000)">
                <g id="line4" transform="translate(0.000000, 212.000000)">
                    <g id="编组-56" transform="translate(180.000000, 0.000000)">
                        <circle id="椭圆" fill="#00AAEF" cx="25" cy="25" r="25"></circle>
                        <path d="M23.5367857,10 L26.5069866,10 L26.5069866,12.1775781 C31.1972991,12.8240848 34.0115067,15.1617076 34.9492076,19.1939286 L29.7900781,20.4035714 C29.1647991,18.2262277 28.0704353,16.8955134 26.5069866,16.4116295 L26.5069866,22.5811496 C32.6548438,24.1134933 35.6257143,26.6540848 35.4185268,30.2015848 C35.313058,34.5567076 32.3424219,36.9762277 26.5069866,37.4600446 L26.5069866,40 L23.5367857,40 L23.5367857,37.3387723 C18.115558,37.0167411 14.9381362,34.4354353 14,29.5966295 L19.1591295,28.3867857 C19.8862277,31.2901563 21.348058,32.9836496 23.5367857,33.4677009 L23.5367857,26.3305134 C17.3846429,24.9603571 14.414442,22.5811496 14.6255134,19.1939286 C14.9381362,14.9197991 17.9085714,12.5403571 23.5367857,12.0565067 L23.5367857,10 Z M23.5367857,21.8551563 L23.5367857,16.169721 C21.0354353,16.4116295 19.784442,17.2998438 19.784442,18.8309152 C19.784442,20.040558 21.0354353,21.0498438 23.5367857,21.8551563 Z M26.5069866,26.9352009 L26.5069866,33.4675 C28.9029353,33.2253571 30.1027009,32.1790067 30.1027009,30.3219866 C30.2044866,28.7917857 29.0085714,27.6609933 26.5069866,26.9352009 L26.5069866,26.9352009 Z" id="形状" fill="#FFFFFF" fill-rule="nonzero"></path>
                    </g>
                </g>
            </g>
        </g>
    </g>
</svg>