<?xml version="1.0" encoding="UTF-8"?>
<svg width="50px" height="50px" viewBox="0 0 50 50" version="1.1" xmlns="http://www.w3.org/2000/svg" xmlns:xlink="http://www.w3.org/1999/xlink">
    <!-- Generator: Sketch 57.1 (83088) - https://sketch.com -->
    <title>编组 58</title>
    <desc>Created with Sketch.</desc>
    <g id="xmind-图标" stroke="none" stroke-width="1" fill="none" fill-rule="evenodd">
        <g id="icon" transform="translate(-397.000000, -1091.000000)">
            <g id="符号" transform="translate(97.000000, 879.000000)">
                <g id="line4" transform="translate(0.000000, 212.000000)">
                    <g id="编组-58" transform="translate(300.000000, 0.000000)">
                        <circle id="椭圆" fill="#00AAEF" cx="25" cy="25" r="25"></circle>
                        <g id="饼图" transform="translate(11.000000, 10.000000)" fill="#FFFFFF" fill-rule="nonzero">
                            <path d="M28.3267811,14.1645371 L16.6990507,15.6421539 L26.8527364,21.3665818 L26.8527365,21.3665818 C27.8564017,19.1003868 28.3603613,16.6446384 28.3303532,14.166345 L28.3267811,14.1645371 Z M15.0335773,0.688865605 L15.4038772,13.6117661 L28.1425101,11.7656399 L28.1425101,11.7656433 C26.7545682,5.54947139 21.3941923,1.02007364 15.0335773,0.688865605 L15.0335773,0.688865605 Z" id="形状"></path>
                            <path d="M13.373503,15.6439416 L13.1946148,11.0286176 L12.8189511,0.69066347 L12.8189514,0.69066347 C4.93961556,1.57193886 -0.73345334,8.67383682 0.147825441,16.5531727 C0.95545796,23.7740682 7.03088444,29.2530312 14.2965919,29.3129423 L14.2965917,29.3129423 C18.8485819,29.3354404 23.1240341,27.1309096 25.7454475,23.4094666 L13.373503,15.6439416 Z" id="路径"></path>
                        </g>
                    </g>
                </g>
            </g>
        </g>
    </g>
</svg>