<?xml version="1.0" encoding="UTF-8"?>
<svg width="50px" height="50px" viewBox="0 0 50 50" version="1.1" xmlns="http://www.w3.org/2000/svg" xmlns:xlink="http://www.w3.org/1999/xlink">
    <!-- Generator: Sketch 57.1 (83088) - https://sketch.com -->
    <title>编组 59</title>
    <desc>Created with Sketch.</desc>
    <g id="xmind-图标" stroke="none" stroke-width="1" fill="none" fill-rule="evenodd">
        <g id="icon" transform="translate(-457.000000, -1091.000000)">
            <g id="符号" transform="translate(97.000000, 879.000000)">
                <g id="line4" transform="translate(0.000000, 212.000000)">
                    <g id="编组-59" transform="translate(360.000000, 0.000000)">
                        <circle id="椭圆" fill="#00AAEF" cx="25" cy="25" r="25"></circle>
                        <path d="M25.1846433,28.6394839 L25.1846433,35.3322143 C25.1846433,35.4500587 25.2296106,35.5679331 25.3195453,35.6577779 C25.40948,35.7476226 25.5272945,35.7926799 25.645109,35.7926799 L29.0301011,35.7926799 C29.1479155,35.7926799 29.2657899,35.7477126 29.3556647,35.6577779 C29.4455394,35.5678432 29.4905667,35.4500287 29.4905667,35.3322143 L29.4905667,26.4132104 L26.0488258,29.3759591 L25.1846433,28.6395139 L25.1846433,28.6394839 Z M10.7197564,35.3322442 C10.7197564,35.4500887 10.7647537,35.5679631 10.8546884,35.6578078 C10.9445931,35.7477425 11.0624375,35.7927099 11.180252,35.7927099 L14.5647945,35.7927099 C14.6826089,35.7927099 14.8004833,35.7477425 14.8903581,35.6578078 C14.9802928,35.5679331 15.0252601,35.4500587 15.0252601,35.3322442 L15.0252601,28.5047917 L10.7197564,32.056223 L10.7197564,35.3322442 L10.7197564,35.3322442 Z M17.9513455,26.0899851 L17.9513455,35.3321843 C17.9513455,35.4500287 17.9963128,35.5679031 18.0862475,35.6577479 C18.1761522,35.7476826 18.2939967,35.7926499 18.4118111,35.7926499 L21.7972229,35.7926499 C21.9150374,35.7926499 22.0329118,35.7476826 22.1227865,35.6577479 C22.2127212,35.5678731 22.2576886,35.4499987 22.2576886,35.3321843 L22.2576886,26.1477232 L20.1058511,24.3154836 L17.9513455,26.0899851 Z M32.4170418,35.3322442 C32.4170418,35.4500887 32.4620091,35.5679631 32.5519438,35.6578078 C32.6418785,35.7476526 32.759693,35.7927099 32.8775074,35.7927099 L36.2638786,35.7927099 C36.381723,35.7927099 36.4995674,35.7477425 36.5894422,35.6578078 C36.6793169,35.5678731 36.7243442,35.4500587 36.7243442,35.3322442 L36.7243442,20.1849328 L32.4170418,23.8935999 L32.4170418,35.3322442 L32.4170418,35.3322442 Z M31.6743611,12.3416098 L31.6743611,12.3416098 C31.5895916,12.3416098 31.5208797,12.4104029 31.5208884,12.4951723 C31.5208926,12.5363115 31.5374115,12.5757271 31.5667392,12.604577 L34.8028294,15.7865265 L26.0487658,23.3241334 L20.1058211,18.262129 L10.6951143,26.0252022 L10.6951143,29.3785673 L20.1058211,21.6158538 L26.0487658,26.6770788 L36.6229878,17.5741885 L39.2967764,20.2037891 L39.2967764,20.2037862 C39.2968056,20.2885391 39.365535,20.3572211 39.450288,20.3571917 C39.5350409,20.3571624 39.6036935,20.288433 39.6036935,20.2036801 C39.6036935,20.1625799 39.587179,20.1232032 39.5578889,20.0943704 L39.5578889,12.4951283 C39.5578889,12.4558568 39.5428997,12.4165853 39.5129215,12.3865771 C39.4829433,12.3565989 39.4436418,12.3416098 39.4044003,12.3416098 L31.6743332,12.3416098 L31.6743611,12.3416098 Z" id="形状" fill="#FFFFFF" fill-rule="nonzero"></path>
                    </g>
                </g>
            </g>
        </g>
    </g>
</svg>