<?xml version="1.0" encoding="UTF-8"?>
<svg width="50px" height="50px" viewBox="0 0 50 50" version="1.1" xmlns="http://www.w3.org/2000/svg" xmlns:xlink="http://www.w3.org/1999/xlink">
    <!-- Generator: Sketch 57.1 (83088) - https://sketch.com -->
    <title>编组 60</title>
    <desc>Created with Sketch.</desc>
    <g id="xmind-图标" stroke="none" stroke-width="1" fill="none" fill-rule="evenodd">
        <g id="icon" transform="translate(-97.000000, -1151.000000)">
            <g id="符号" transform="translate(97.000000, 879.000000)">
                <g id="line5" transform="translate(0.000000, 272.000000)">
                    <g id="编组-60">
                        <circle id="椭圆" fill="#0178F0" cx="25" cy="25" r="25"></circle>
                        <path d="M39.9306012,27.130225 C39.9306012,27.4607088 39.8121705,27.7469542 39.5753088,27.9889643 C39.3386815,28.2307408 39.0582858,28.351745 38.7345901,28.351745 L34.5480911,28.351745 C34.5480911,30.5275004 34.1307742,32.3723063 33.2959089,33.8859311 L37.1832865,37.8751154 C37.4199138,38.1171261 37.5383445,38.4033739 37.5383445,38.7340891 C37.5383445,39.0645729 37.4199138,39.3508183 37.1832865,39.592594 C36.9590638,39.8343706 36.6789021,39.9553747 36.3423334,39.9553747 C36.0057646,39.9553747 35.7256042,39.8343694 35.5013803,39.592594 L31.8007705,35.8330096 L31.8007705,35.8330095 C31.7117926,35.9204699 31.6183592,36.0032784 31.5208433,36.0811057 C31.3963273,36.1826845 31.1346573,36.3638417 30.736064,36.6245751 L30.7360637,36.6245753 C30.3452254,36.8806007 29.9394339,37.1130397 29.5208602,37.3206493 C29.1093939,37.5242754 28.5986931,37.7087103 27.988749,37.8739507 C27.3785735,38.039192 26.7742486,38.1220469 26.1753084,38.1220466 L26.1753084,21.0216752 L23.783289,21.0216752 L23.783289,38.1220466 C23.1476018,38.1220466 22.5154243,38.0361493 21.8860564,37.8641205 C21.2569228,37.6923257 20.7150911,37.4823788 20.2605584,37.2340494 L20.2605586,37.2340495 C19.8383491,37.005112 19.426918,36.7568322 19.0275777,36.4900018 C18.6598809,36.2426078 18.3886121,36.0359407 18.2140113,35.8697628 L17.9343096,35.6022345 L14.5145693,39.5523368 C14.2650689,39.8191569 13.9659495,39.9528021 13.6174452,39.9528021 C13.3185611,39.9528021 13.0505705,39.8512233 12.8137079,39.6475986 C12.5768465,39.4186948 12.4492866,39.135726 12.4310317,38.7986884 C12.4125415,38.4616509 12.5089714,38.1655764 12.7203211,37.9106933 L16.495345,33.5783835 C15.7728247,32.127958 15.4116817,30.3849619 15.4116817,28.3491782 L11.2251826,28.3491782 C10.901487,28.3491782 10.6213265,28.2281729 10.3844639,27.9863975 C10.1476025,27.744621 10.0291715,27.4583735 10.0291715,27.1276583 C10.0291715,26.7971745 10.1476022,26.510929 10.3844639,26.2691534 C10.6213253,26.0271427 10.9017213,25.9063727 11.2251826,25.9063727 L15.4116817,25.9063727 L15.4116817,20.2949599 L12.1784748,16.9934033 C11.9416134,16.7516268 11.8234167,16.4653793 11.8234167,16.134664 C11.8234167,15.8041802 11.9416134,15.5179348 12.1784748,15.2761591 C12.4153362,15.0341485 12.6957322,14.9133784 13.0194279,14.9133784 C13.3431236,14.9133784 13.6232841,15.0341497 13.860381,15.2761591 L17.0933535,18.5777157 L32.8675711,18.5777157 L36.100778,15.2761591 C36.3376394,15.0341485 36.6180354,14.9133784 36.9414967,14.9133784 C37.2654268,14.9133784 37.5455873,15.0341497 37.7824499,15.2761591 C38.0193113,15.5179357 38.1377423,15.8041832 38.1377423,16.134664 C38.1377423,16.4653822 38.0193116,16.7516276 37.7824499,16.9936377 L34.549243,20.2949599 L34.549243,25.9063727 L38.735742,25.9063727 C39.0594377,25.9063727 39.3395982,26.0271439 39.5766951,26.2691534 C39.8133224,26.5109299 39.9317532,26.7971774 39.9317532,27.1276583 L39.9305829,27.1299988 L39.9306012,27.130225 Z M30.9598291,16.1372337 L18.99878,16.1372337 C18.99878,14.4450325 19.5813373,13.0041929 20.7462176,11.8145041 C21.9113322,10.6248123 23.322204,10.030085 24.9792987,10.030085 C26.6363934,10.030085 28.047271,10.6248123 29.2123798,11.8145041 C30.37726,13.0041959 30.9598291,14.4452581 30.9598291,16.1372337 L30.9598291,16.1372337 Z" id="形状" fill="#FFFFFF" fill-rule="nonzero"></path>
                    </g>
                </g>
            </g>
        </g>
    </g>
</svg>