<?xml version="1.0" encoding="UTF-8"?>
<svg width="50px" height="50px" viewBox="0 0 50 50" version="1.1" xmlns="http://www.w3.org/2000/svg" xmlns:xlink="http://www.w3.org/1999/xlink">
    <!-- Generator: Sketch 57.1 (83088) - https://sketch.com -->
    <title>编组 61</title>
    <desc>Created with Sketch.</desc>
    <g id="xmind-图标" stroke="none" stroke-width="1" fill="none" fill-rule="evenodd">
        <g id="icon" transform="translate(-157.000000, -1151.000000)">
            <g id="符号" transform="translate(97.000000, 879.000000)">
                <g id="line5" transform="translate(0.000000, 272.000000)">
                    <g id="编组-61" transform="translate(60.000000, 0.000000)">
                        <circle id="椭圆" fill="#0178F0" cx="25" cy="25" r="25"></circle>
                        <path d="M39.5278957,21.9704314 C39.4404073,21.763163 39.2416752,21.6244373 39.0166635,21.6133202 L36.6134525,21.4957094 C36.353711,20.676074 36.0058392,19.8865907 35.5755265,19.1398956 L37.2217044,17.2741177 C37.3903522,17.0830453 37.4157092,16.8049941 37.2844365,16.5866093 C35.4686503,13.5656394 33.2143893,12.6230911 33.1192267,12.5844759 C32.9104799,12.4996569 32.6716907,12.5418464 32.5048826,12.6927289 L30.6082173,14.4091422 C29.9425596,14.0709462 29.2344805,13.7933761 28.4944726,13.580267 L28.3666449,10.9818735 C28.3556688,10.7572491 28.2165845,10.5588574 28.0090796,10.4715188 C27.9431829,10.4438057 26.8271031,9.98727893 25.0000207,10.0002721 C23.1729383,9.9872794 22.0568563,10.4438067 21.9909617,10.4715188 C21.7834569,10.558857 21.6443726,10.757248 21.6333964,10.9818735 L21.5055687,13.580267 C20.7655608,13.7933742 20.0574818,14.070944 19.391824,14.4091422 L17.4951587,12.6926886 C17.3283536,12.5418061 17.0895633,12.4996166 16.8808147,12.5844356 C16.7856748,12.6230259 14.5314057,13.5655917 12.7156048,16.586569 C12.5843321,16.8049549 12.6096891,17.0830053 12.778337,17.2740774 L14.4245149,19.1398553 C13.9942021,19.8865504 13.6463318,20.6760337 13.3865888,21.4956691 L10.9833779,21.6132799 C10.7583672,21.6243971 10.5596344,21.7631227 10.4721457,21.9703911 C10.4324075,22.0647676 9.50572554,24.3226071 10.3616634,27.7405078 C10.4236344,27.9876463 10.63851,28.1662021 10.8930842,28.1824395 C11.123743,28.1969559 11.3531202,28.2029144 11.5750073,28.2085131 C12.1425591,28.2230694 12.6786665,28.236786 13.1764409,28.389588 C13.3413633,28.4401754 13.4283708,28.7127878 13.5424585,29.1228447 C13.5928525,29.3041996 13.6449288,29.4916347 13.7179963,29.6703491 C13.7882596,29.8420263 13.8650925,30.0052657 13.939602,30.1630265 C13.9905967,30.2711198 14.0386273,30.3732944 14.0840139,30.4763886 C14.2009054,30.7422825 14.1890081,30.8583348 14.1849623,30.8808481 C14.0651062,31.0243725 13.9347547,31.1637379 13.7968727,31.3113418 C13.7260086,31.387283 13.6527811,31.4657034 13.5806351,31.5450437 L12.6974575,32.5177624 C12.5461551,32.6842812 12.5040535,32.9228228 12.588858,33.1310519 C12.627675,33.2258683 13.5715398,35.4762703 16.5980202,37.2891116 C16.8167816,37.420159 17.0953101,37.3946854 17.2866703,37.2264473 L18.2057,36.4182096 C18.2975549,36.3376295 18.3876875,36.2487317 18.4748554,36.162833 C18.8292561,35.8135196 19.0236205,35.6565194 19.1689959,35.7104268 C19.2983859,35.7582148 19.4393929,35.834156 19.588651,35.9147361 C19.7188422,35.9848788 19.8534399,36.0573809 19.9983312,36.1214048 C20.2338369,36.2254589 20.4727865,36.3046391 20.7037275,36.3813402 C20.9710002,36.4699181 21.2235695,36.5536574 21.4404508,36.6656694 C21.4998983,36.6962618 21.5158818,36.7045396 21.5327864,36.9716733 C21.5612282,37.4209617 21.5817385,37.8812888 21.6014474,38.326657 C21.6117826,38.5572396 21.6221178,38.7879439 21.6333743,39.0183639 C21.6445106,39.2428282 21.7834347,39.4412188 21.9910996,39.5285573 C22.0558748,39.5558706 23.1409088,40 24.9219659,40 C24.9348248,40 25.0651763,40 25.0780352,40 C26.8590924,40 27.9441263,39.5558701 28.0089015,39.5285573 C28.2165664,39.4412192 28.3554906,39.2428282 28.3666268,39.0183639 C28.3778834,38.787941 28.3882186,38.5572382 28.3985537,38.326657 C28.4182627,37.8812888 28.4387727,37.4209617 28.4672147,36.9716733 C28.4841195,36.7045396 28.500103,36.6962619 28.5595504,36.6656694 C28.7764291,36.5536571 29.0289998,36.4699181 29.2962736,36.3813402 C29.5272128,36.3046391 29.7661635,36.2254589 30.00167,36.1214048 C30.1465627,36.0573809 30.2811604,35.9848788 30.4113501,35.9147361 C30.5606094,35.834156 30.7016163,35.7582152 30.8310052,35.7104268 C30.9763788,35.6565201 31.1707443,35.8135214 31.5251457,36.162833 C31.6123137,36.2487317 31.7024462,36.3376295 31.7943011,36.4182096 L32.7133308,37.2264473 C32.9046917,37.3946854 33.1832207,37.420159 33.401981,37.2891116 C36.428465,35.4762813 37.3723148,33.225868 37.4111432,33.1310519 C37.4959477,32.9228235 37.453846,32.6842841 37.3025436,32.5177624 L36.419366,31.5450437 C36.34722,31.4657034 36.2739925,31.387283 36.2031285,31.3113418 C36.0652461,31.1637386 35.9348946,31.0243733 35.8150388,30.8808481 C35.8109929,30.8583337 35.7990954,30.7422825 35.9159872,30.4763886 C35.9613739,30.373294 36.0094044,30.2711194 36.0603992,30.1630265 C36.1349086,30.0052657 36.2117415,29.8420263 36.2820048,29.6703491 C36.3550723,29.4916336 36.4071487,29.3042 36.4575427,29.1228447 C36.5716303,28.7127871 36.6586379,28.4401725 36.8235603,28.389588 C37.321331,28.2367861 37.8574384,28.2230692 38.4249938,28.2085131 C38.6468798,28.2029144 38.8762548,28.1969559 39.1069169,28.1824395 C39.3614907,28.1662036 39.5763664,27.9876477 39.6383377,27.7405078 C40.494273,24.3226365 39.5675937,22.0648042 39.5278555,21.9704277 L39.5278957,21.9704314 Z M30.1707617,30.1619125 C28.7896519,31.5406515 26.9532367,32.2999826 25.00005,32.2999826 C23.0468597,32.2999826 21.2103895,31.5406515 19.8293384,30.1619125 C18.4482286,28.7832138 17.6875917,26.9499108 17.6875917,25.000077 C17.6875917,23.0502395 18.4482286,21.217105 19.8293384,19.838388 C21.2105656,18.4594915 23.0468634,17.7003179 25.00005,17.7003179 C26.9532404,17.7003179 28.7896739,18.4594879 30.1707617,19.838388 C31.5518311,21.2170867 32.3125084,23.0502322 32.3125084,25.000077 C32.3125084,26.9499145 31.5519926,28.7832322 30.1707617,30.1619125 Z" id="形状" fill="#FFFFFF" fill-rule="nonzero"></path>
                    </g>
                </g>
            </g>
        </g>
    </g>
</svg>