<?xml version="1.0" encoding="UTF-8"?>
<svg width="50px" height="50px" viewBox="0 0 50 50" version="1.1" xmlns="http://www.w3.org/2000/svg" xmlns:xlink="http://www.w3.org/1999/xlink">
    <!-- Generator: Sketch 57.1 (83088) - https://sketch.com -->
    <title>编组 62</title>
    <desc>Created with Sketch.</desc>
    <g id="xmind-图标" stroke="none" stroke-width="1" fill="none" fill-rule="evenodd">
        <g id="icon" transform="translate(-217.000000, -1151.000000)">
            <g id="符号" transform="translate(97.000000, 879.000000)">
                <g id="line5" transform="translate(0.000000, 272.000000)">
                    <g id="编组-62" transform="translate(120.000000, 0.000000)">
                        <circle id="椭圆" fill="#0178F0" cx="25" cy="25" r="25"></circle>
                        <path d="M18.8256729,12.576862 C18.8256729,12.576862 21.6826932,14.5303622 22.8554832,15.7056053 C22.8554832,15.7056053 24.2484804,14.9392691 27.1813563,15.6346561 C27.1813563,15.6346561 31.8475251,14.1019069 31.1449703,10.9365582 C31.1449703,10.9365582 30.8022981,11.6831161 29.7054785,11.947633 C29.7054785,11.947633 29.4972304,10.0110748 28.5619345,9.17635739 C28.5619345,9.17635739 27.3722025,8.38307496 25.3942093,10.1701836 C25.3942093,10.1701836 24.6890481,9 22.9312621,9 C22.9312621,9 21.5235077,10.099196 21.6557087,11.8129022 C21.6534089,11.8129022 19.9985012,11.1666929 18.8256729,12.576862 L18.8256729,12.576862 L18.8256729,12.576862 Z M23.3793808,25.1701439 C23.3793808,25.3489161 23.4625191,25.5374242 23.6289489,25.7381979 C23.7979852,25.9389334 24.1063519,26.0906444 24.5568471,26.1911079 L24.5568471,24.2814192 C24.2337233,24.296253 23.9547175,24.3819594 23.7245828,24.5335938 C23.4944481,24.6879113 23.3793808,24.9008357 23.3793808,25.1701439 L23.3793808,25.1701439 L23.3793808,25.1701439 Z M25.77617,28.9747259 L25.77617,31.2513882 C26.1285782,31.1828537 26.4224944,31.0728076 26.6599118,30.916152 C26.8998974,30.7642493 27.0173029,30.5144895 27.0173029,30.166911 C27.0173029,29.9000176 26.9194458,29.6747508 26.7308227,29.4986234 C26.5399382,29.3223427 26.2217206,29.1508916 25.77617,28.9747259 L25.77617,28.9747259 Z M35.7450578,29.1900651 C33.5759885,20.1489605 30.8217315,16.2685998 25.0563667,16.2685998 C18.8256729,16.2685998 16.6076558,21.5494321 14.3700137,28.8352038 C12.3821313,35.3057299 18.7571384,38.9999987 25.0563667,38.9999987 C31.3603862,39.0023739 37.3168272,35.7682991 35.7450578,29.1900651 L35.7450578,29.1900651 L35.7450578,29.1900651 Z M29.0225105,31.3054338 C28.7800335,31.7508694 28.3908283,32.1352066 27.8497205,32.4608602 C27.3087276,32.789082 26.6206233,32.9946853 25.77617,33.0681261 L25.77617,34.4097224 L24.5568088,34.4097224 L24.5568088,33.0681261 C24.0428004,33.0092125 23.4772379,32.8745967 22.8651424,32.6740146 C22.2531237,32.4731642 21.6901676,32.2185749 21.1807972,31.9076017 L21.1807972,29.7263817 C21.5089806,29.9785562 21.8565974,30.2062378 22.2237627,30.4191239 C22.5885898,30.6320867 22.9681358,30.8084057 23.3573409,30.9479277 C23.7466227,31.0923177 24.1479786,31.1879516 24.5568471,31.236861 L24.5568471,28.6735652 C23.5800396,28.4385243 22.8358965,28.1398551 22.3192433,27.7971062 C21.8051966,27.4543956 21.4600712,27.0944748 21.2886201,26.7127057 C21.1173606,26.3355746 21.0291628,25.93901 21.0291628,25.5325946 C21.0291628,25.1605997 21.124605,24.7613904 21.3154896,24.3403711 C21.5065275,23.9191602 21.8638802,23.5299168 22.3902309,23.1774703 C22.9166199,22.8247939 23.6388765,22.5947358 24.5568471,22.4895577 L24.5568471,21.8113809 L25.7762084,21.8113809 L25.7762084,22.4871812 C26.349092,22.5581304 26.8803106,22.6853102 27.3674879,22.8664971 C27.8571949,23.0476841 28.3883369,23.3097479 28.9612205,23.6524968 L28.9612205,25.9291591 C28.59647,25.6379644 28.1313327,25.3417484 27.5682233,25.0428876 C27.0026607,24.7442568 26.4077756,24.5263877 25.7762084,24.3893572 L25.7762084,26.4899304 C26.8803106,26.8471681 27.7591078,27.2879658 28.4104151,27.8070337 C29.0639838,28.3284015 29.3848462,29.0506197 29.3848462,29.9637991 C29.3848462,30.4167091 29.2622661,30.8671659 29.0225105,31.3054338 L29.0225105,31.3054338 L29.0225105,31.3054338 Z" id="形状" fill="#FFFFFF" fill-rule="nonzero"></path>
                    </g>
                </g>
            </g>
        </g>
    </g>
</svg>