<?xml version="1.0" encoding="UTF-8"?>
<svg width="50px" height="50px" viewBox="0 0 50 50" version="1.1" xmlns="http://www.w3.org/2000/svg" xmlns:xlink="http://www.w3.org/1999/xlink">
    <!-- Generator: Sketch 57.1 (83088) - https://sketch.com -->
    <title>编组 63</title>
    <desc>Created with Sketch.</desc>
    <g id="xmind-图标" stroke="none" stroke-width="1" fill="none" fill-rule="evenodd">
        <g id="icon" transform="translate(-277.000000, -1151.000000)">
            <g id="符号" transform="translate(97.000000, 879.000000)">
                <g id="line5" transform="translate(0.000000, 272.000000)">
                    <g id="编组-63" transform="translate(180.000000, 0.000000)">
                        <circle id="椭圆" fill="#0178F0" cx="25" cy="25" r="25"></circle>
                        <path d="M18.5132623,17.9584572 L23.5356252,14.0331895 C24.9120742,12.9766082 26.734312,12.7045037 28.3220895,13.3370034 L36.3072303,16.4763491 C36.8384163,16.6891125 37.3927579,16.7802968 37.9239439,16.7802968 L39.2439454,16.7802968 C39.6260511,16.7802968 39.9473673,17.0827971 39.9473673,17.4750345 L39.9473673,27.5632154 C39.9473673,27.956899 39.7056566,28.1971635 39.2236834,28.4388732 C37.5128919,28.9700592 36.4809181,29.1017676 36.1306523,28.8368989 C35.7803899,28.5705826 32.6786746,24.682958 26.8240512,17.1754492 L26.8240512,17.1754492 C26.5915255,16.880947 26.176836,16.8041988 25.8543121,16.9959752 L21.599044,19.4434769 L21.5990441,19.4434769 C20.7446898,19.9292573 19.7116339,19.9850093 18.8099608,19.5940036 L18.8099606,19.5940036 C18.3255813,19.3613475 18.1070917,18.7909947 18.3120665,18.2942641 C18.3077243,18.1712375 18.3945665,18.0511059 18.5146982,17.9584741 L18.5132623,17.9584572 Z M13.3664029,28.3954317 L14.4302199,27.0537197 L14.4302198,27.0537198 C15.3419103,25.9025924 17.014152,25.7084865 18.1652827,26.6201771 C18.1929452,26.6420856 18.2201687,26.6645426 18.2469371,26.6875351 C18.6608861,27.0537208 23.68906,31.6635935 24.1015605,32.090579 C24.9598498,33.0357105 25.1378764,34.4425543 24.4880083,35.5686093 L24.3389291,35.8436098 L24.3389291,35.8754519 C25.0481416,36.3632167 33.7728761,32.3294064 34.3663205,31.9660939 L34.3663204,31.966094 C35.1251924,31.486569 35.351647,30.4826493 34.872122,29.7237739 C34.8274471,29.6530739 34.7773822,29.5859269 34.7223731,29.5229317 L33.7772416,28.3317449 L26.1163003,18.7197714 L26.1163003,18.7197714 C26.0346106,18.6260076 25.8991171,18.6008274 25.7891945,18.6589818 L22.12157,20.7649053 L22.12157,20.7649053 C20.9516461,21.4422101 19.5384282,21.5549692 18.275919,21.071748 C17.5667065,20.8256952 17.0326269,20.246747 16.7677582,19.5447737 L16.7677582,19.5447737 C16.5547495,18.8168087 16.6505317,18.0332783 17.0326269,17.3780606 C17.1194691,17.195692 17.0615743,16.980035 16.8835477,16.8902958 C16.8256528,16.8598873 16.7648632,16.8598873 16.7055212,16.8598873 L11.7092109,16.8598873 L11.7092108,16.8598873 C11.3199305,16.8575021 11.0024103,17.1711323 11,17.5604123 C11,17.5613821 11,17.562352 11,17.5633219 L11,27.7267434 C11.1490792,28.0885871 11.4718415,28.3954284 11.8582893,28.3954284 L13.3664501,28.3954284 L13.3664029,28.3954317 Z M15.6879834,28.0089839 L14.666139,29.3000392 C14.2290343,29.8703041 14.2869269,30.711225 14.842718,31.1628045 L14.8716654,31.1628045 L15.0164025,31.281489 C15.2899555,31.5014891 17.3582485,32.8721499 21.2212782,35.3920088 C21.8045695,35.8406946 22.6223313,35.7538524 23.0594394,35.1488506 L23.0594393,35.1488507 C23.0898308,35.0929012 23.1294691,35.0424971 23.1766763,34.9997714 L23.3518082,34.6697711 L23.3518082,34.669771 C23.6794815,34.1135772 23.583776,33.4053553 23.1202289,32.9560859 C22.7395717,32.5942423 17.9907379,28.0089636 17.3785004,27.6471437 L17.3785004,27.6471437 C16.8057116,27.3155598 16.0748497,27.4719938 15.687971,28.0089874 L15.6879834,28.0089839 Z" id="形状" fill="#FFFFFF" fill-rule="nonzero"></path>
                    </g>
                </g>
            </g>
        </g>
    </g>
</svg>