<?xml version="1.0" encoding="UTF-8"?>
<svg width="50px" height="50px" viewBox="0 0 50 50" version="1.1" xmlns="http://www.w3.org/2000/svg" xmlns:xlink="http://www.w3.org/1999/xlink">
    <!-- Generator: Sketch 57.1 (83088) - https://sketch.com -->
    <title>编组 64</title>
    <desc>Created with Sketch.</desc>
    <g id="xmind-图标" stroke="none" stroke-width="1" fill="none" fill-rule="evenodd">
        <g id="icon" transform="translate(-337.000000, -1151.000000)">
            <g id="符号" transform="translate(97.000000, 879.000000)">
                <g id="line5" transform="translate(0.000000, 272.000000)">
                    <g id="编组-64" transform="translate(240.000000, 0.000000)">
                        <circle id="椭圆" fill="#0178F0" cx="25" cy="25" r="25"></circle>
                        <path d="M24.7721317,10 L12,15.4832031 L12,23.7991964 C12,25.6604353 12.3198549,27.4928125 12.950558,29.245 C13.5763393,30.9859375 14.4449665,32.5820982 15.5303237,33.9866071 C16.6581696,35.4552679 17.9970201,36.7184152 19.5096094,37.7408594 C21.0329799,38.770904 22.7199107,39.5110603 24.5235938,39.9408036 L24.7721317,40 L25.0206696,39.9408036 C26.8236496,39.5112612 28.5105469,38.7711049 30.0348549,37.7408259 C31.546875,36.7182813 32.885625,35.4553013 34.0120982,33.9891853 C35.0983929,32.583471 35.9669866,30.9873772 36.5938058,29.2451674 C37.2245759,27.4912723 37.5443973,25.6589621 37.5443973,23.7991964 L37.5443973,15.4832031 L24.7721317,10 Z M32.3131473,32.68 C31.3252232,33.9657478 30.1544531,35.0706585 28.8335491,35.9639621 C27.5944754,36.8014509 26.229442,37.4159821 24.7721987,37.7925893 L24.7721987,25 L14.1973996,25.0104464 L14.1973994,25.0104452 C14.1623852,24.607635 14.144866,24.2034921 14.144866,23.7991617 L14.144866,16.8965501 L24.7721651,12.3341394 L24.772232,12.3341394 L24.772232,24.9999988 L35.3489396,24.9865725 C35.2462834,26.1899541 34.9874999,27.3738158 34.5756026,28.5191729 C34.0246874,30.0502778 33.2641405,31.4493961 32.3131472,32.6799988 L32.3131473,32.68 Z" id="形状" fill="#FFFFFF" fill-rule="nonzero"></path>
                    </g>
                </g>
            </g>
        </g>
    </g>
</svg>