<?xml version="1.0" encoding="UTF-8"?>
<svg width="50px" height="50px" viewBox="0 0 50 50" version="1.1" xmlns="http://www.w3.org/2000/svg" xmlns:xlink="http://www.w3.org/1999/xlink">
    <!-- Generator: Sketch 57.1 (83088) - https://sketch.com -->
    <title>编组 65</title>
    <desc>Created with Sketch.</desc>
    <g id="xmind-图标" stroke="none" stroke-width="1" fill="none" fill-rule="evenodd">
        <g id="icon" transform="translate(-397.000000, -1151.000000)">
            <g id="符号" transform="translate(97.000000, 879.000000)">
                <g id="line5" transform="translate(0.000000, 272.000000)">
                    <g id="编组-65" transform="translate(300.000000, 0.000000)">
                        <circle id="椭圆" fill="#0178F0" cx="25" cy="25" r="25"></circle>
                        <path d="M19.8162598,23.4058515 L23.5690914,23.4058515 L23.4935817,39.9699925 L12.446514,35.6789197 L10,14.1260315 L18.0266801,10 L32.1469922,10 L40,14.0660165 L37.5987918,35.7389347 L26.4762144,40 L26.4007048,23.555889 L30.5914926,23.6309077 L30.9237352,20.3150788 L19.1895293,20.2550638 L19.8162598,23.4058515 Z M13.0128366,16.1965491 L15.0515983,34.2385596 L21.0168638,36.5866467 L20.9413541,26.8942236 L17.0903599,26.8342086 L16.0634281,18.1170293 L33.9516738,18.1170293 L32.932293,26.9242311 L29.2247672,26.9242311 L29.3002769,36.6466617 L35.114523,34.1785446 L37.0022653,16.2790698 L31.3314875,13.4283571 L18.532595,13.4283571 L13.0128366,16.1965491 Z" id="形状" fill="#FFFFFF" fill-rule="nonzero"></path>
                    </g>
                </g>
            </g>
        </g>
    </g>
</svg>