<?xml version="1.0" encoding="UTF-8"?>
<svg width="50px" height="50px" viewBox="0 0 50 50" version="1.1" xmlns="http://www.w3.org/2000/svg" xmlns:xlink="http://www.w3.org/1999/xlink">
    <!-- Generator: Sketch 57.1 (83088) - https://sketch.com -->
    <title>编组 66</title>
    <desc>Created with Sketch.</desc>
    <g id="xmind-图标" stroke="none" stroke-width="1" fill="none" fill-rule="evenodd">
        <g id="icon" transform="translate(-457.000000, -1151.000000)">
            <g id="符号" transform="translate(97.000000, 879.000000)">
                <g id="line5" transform="translate(0.000000, 272.000000)">
                    <g id="编组-66" transform="translate(360.000000, 0.000000)">
                        <circle id="椭圆" fill="#0178F0" cx="25" cy="25" r="25"></circle>
                        <path d="M24.7493102,10.5625024 C31.3939517,10.5625024 36.7812725,15.7134732 36.7812725,22.0656906 C36.7812725,31.840115 24.7493102,39.437536 24.7493102,39.437536 C24.7493102,39.437536 12.7187659,32.755995 12.7187659,22.0656906 C12.7187659,15.7134732 18.1046687,10.5625024 24.7493102,10.5625024 Z M24.5924956,26.3757083 C26.9684661,26.3757083 28.8945855,24.4518447 28.8945855,22.0786135 C28.8945855,19.7054144 26.9684661,17.7815186 24.5924956,17.7815186 C22.216525,17.7815186 20.2904056,19.7054144 20.2904056,22.0786135 C20.2904056,24.4518447 22.216525,26.3757083 24.5924956,26.3757083 L24.5924956,26.3757083 Z" id="形状" fill="#FFFFFF" fill-rule="nonzero"></path>
                    </g>
                </g>
            </g>
        </g>
    </g>
</svg>