<?xml version="1.0" encoding="UTF-8"?>
<svg width="50px" height="50px" viewBox="0 0 50 50" version="1.1" xmlns="http://www.w3.org/2000/svg" xmlns:xlink="http://www.w3.org/1999/xlink">
    <!-- Generator: Sketch 57.1 (83088) - https://sketch.com -->
    <title>编组备份 2</title>
    <desc>Created with Sketch.</desc>
    <g id="xmind-图标" stroke="none" stroke-width="1" fill="none" fill-rule="evenodd">
        <g id="icon" transform="translate(-217.000000, -131.000000)">
            <g id="优先级" transform="translate(97.000000, 99.000000)">
                <g id="编组备份-2" transform="translate(120.000000, 32.000000)">
                    <circle id="椭圆形" fill="#586AFF" cx="25" cy="25" r="25"></circle>
                    <path d="M23.1,38.36 C20.904,38.36 18.996,38.216 17.448,37.892 L17.448,33.428 C19.32,33.824 20.904,34.04 22.812,34.04 C25.8,34.04 28.212,33.392 28.212,30.548 C28.212,27.848 25.944,27.128 22.092,27.128 L20.184,27.128 L20.184,23.132 L22.056,23.132 C25.548,23.132 27.78,22.376 27.78,19.82 C27.78,17.552 26.016,16.904 23.244,16.904 C21.696,16.904 19.788,17.192 18.384,17.624 L18.384,13.412 C19.536,13.016 21.84,12.656 23.892,12.656 C29.508,12.656 33,14.384 33,19.496 C33,22.124 31.776,23.96 29.004,24.86 L29.004,25.076 C32.064,25.688 33.648,27.92 33.648,30.98 C33.648,36.056 30.12,38.36 23.1,38.36 Z" id="3" fill="#FFFFFF" fill-rule="nonzero"></path>
                </g>
            </g>
        </g>
    </g>
</svg>