<?xml version="1.0" encoding="UTF-8"?>
<svg width="50px" height="50px" viewBox="0 0 50 50" version="1.1" xmlns="http://www.w3.org/2000/svg" xmlns:xlink="http://www.w3.org/1999/xlink">
    <!-- Generator: Sketch 57.1 (83088) - https://sketch.com -->
    <title>编组备份 4</title>
    <desc>Created with Sketch.</desc>
    <g id="xmind-图标" stroke="none" stroke-width="1" fill="none" fill-rule="evenodd">
        <g id="icon" transform="translate(-337.000000, -131.000000)">
            <g id="优先级" transform="translate(97.000000, 99.000000)">
                <g id="编组备份-4" transform="translate(240.000000, 32.000000)">
                    <circle id="椭圆形" fill="#7FACB3" cx="25" cy="25" r="25"></circle>
                    <path d="M23.388,38.36 C21.228,38.36 19.68,38.216 17.952,37.892 L17.952,33.428 C19.752,33.824 20.904,34.04 22.956,34.04 C26.232,34.04 28.644,33.176 28.644,30.116 C28.644,27.236 26.952,26.264 23.064,26.264 C21.516,26.264 19.464,26.516 17.844,26.804 L19.608,13.016 L32.496,13.016 L32.496,17.444 L23.784,17.444 L22.992,22.592 C23.856,22.412 24.612,22.34 25.656,22.34 C31.272,22.34 34.08,24.824 34.08,30.044 C34.08,35.804 30.084,38.36 23.388,38.36 Z" id="5" fill="#FFFFFF" fill-rule="nonzero"></path>
                </g>
            </g>
        </g>
    </g>
</svg>