<?xml version="1.0" encoding="UTF-8"?>
<svg width="50px" height="50px" viewBox="0 0 50 50" version="1.1" xmlns="http://www.w3.org/2000/svg" xmlns:xlink="http://www.w3.org/1999/xlink">
    <!-- Generator: Sketch 57.1 (83088) - https://sketch.com -->
    <title>编组备份 3</title>
    <desc>Created with Sketch.</desc>
    <g id="xmind-图标" stroke="none" stroke-width="1" fill="none" fill-rule="evenodd">
        <g id="icon" transform="translate(-397.000000, -131.000000)">
            <g id="优先级" transform="translate(97.000000, 99.000000)">
                <g id="编组备份-3" transform="translate(300.000000, 32.000000)">
                    <circle id="椭圆形" fill="#7FACB3" cx="25" cy="25" r="25"></circle>
                    <path d="M24.692,38.36 C19.652,38.36 15.656,36.092 15.656,28.424 C15.656,18.668 20.048,12.656 30.2,12.656 L30.164,17.12 C24.512,17.228 21.56,19.46 21.02,23.348 L21.128,23.348 C22.316,22.376 24.116,21.872 25.952,21.872 C30.884,21.872 33.584,24.608 33.584,29.828 C33.584,34.976 30.848,38.36 24.692,38.36 Z M24.512,34.256 C27.212,34.256 28.724,32.78 28.724,29.9 C28.724,27.128 27.284,25.724 24.836,25.724 C21.704,25.724 20.624,27.344 20.624,29.648 C20.624,32.564 21.884,34.256 24.512,34.256 Z" id="6" fill="#FFFFFF" fill-rule="nonzero"></path>
                </g>
            </g>
        </g>
    </g>
</svg>