<?xml version="1.0" encoding="UTF-8"?>
<svg width="50px" height="50px" viewBox="0 0 50 50" version="1.1" xmlns="http://www.w3.org/2000/svg" xmlns:xlink="http://www.w3.org/1999/xlink">
    <!-- Generator: Sketch 57.1 (83088) - https://sketch.com -->
    <title>编组 28</title>
    <desc>Created with Sketch.</desc>
    <g id="xmind-图标" stroke="none" stroke-width="1" fill="none" fill-rule="evenodd">
        <g id="icon" transform="translate(-277.000000, -691.000000)">
            <g id="人像" transform="translate(97.000000, 659.000000)">
                <g id="编组-28" transform="translate(180.000000, 32.000000)">
                    <circle id="椭圆形" fill="#BF39B1" cx="25" cy="25" r="25"></circle>
                    <path d="M29.7670832,29.1729323 C28.1766283,28.7218045 27.4950047,26.6917293 28.8582518,25.3383459 C30.6759146,23.5338346 32.0391618,20.6015038 32.0391618,17.443609 C32.0391618,12.7067669 29.0854597,10 25.450134,10 C21.5876005,10.2255639 18.6338984,12.9323308 18.6338984,17.6691729 C18.6338984,20.6015038 19.7699377,23.5338346 21.8148084,25.3383459 L21.8148084,25.3383459 C23.1780555,26.9172932 22.2692241,28.9473684 20.6787691,29.1729323 C14.5441571,30.3007519 10,33.6842105 10,36.1654135 C10,39.3233083 16.8162356,40 24.9957183,40 C33.175201,40 39.9914366,39.3233083 39.9914366,36.1654135 C40.2186445,33.9097744 35.9016953,30.5263158 29.7670832,29.1729323 Z" id="user备份-3" fill="#FFFFFF" fill-rule="nonzero"></path>
                </g>
            </g>
        </g>
    </g>
</svg>