<?xml version="1.0" encoding="UTF-8"?>
<svg width="50px" height="50px" viewBox="0 0 50 50" version="1.1" xmlns="http://www.w3.org/2000/svg" xmlns:xlink="http://www.w3.org/1999/xlink">
    <!-- Generator: Sketch 57.1 (83088) - https://sketch.com -->
    <title>编组 3备份 6</title>
    <desc>Created with Sketch.</desc>
    <g id="xmind-图标" stroke="none" stroke-width="1" fill="none" fill-rule="evenodd">
        <g id="icon" transform="translate(-457.000000, -801.000000)">
            <g id="箭头" transform="translate(97.000000, 769.000000)">
                <g id="编组-3备份-6" transform="translate(360.000000, 32.000000)">
                    <circle id="椭圆形备份-2" fill="#FC984F" cx="25" cy="25" r="25"></circle>
                    <path d="M40.8468788,11.7656312 L40.8468788,21.02254 C40.8468788,21.8178915 40.3407118,22.3240586 39.5453602,22.3240586 L30.2884514,22.3240586 C29.7822844,22.3240586 29.3482832,22.0348733 29.0591746,21.528707 C28.842156,21.02254 28.9143967,20.5163729 29.348323,20.0824116 L32.2409537,17.2620228 C30.2162855,15.3813933 27.829442,14.4412612 25.0090604,14.4412612 C23.634967,14.4412612 22.2608736,14.7308167 20.8867694,15.2369819 C19.512676,15.815351 18.4281399,16.6110753 17.5602136,17.5512037 C16.6200852,18.41913 15.8243609,19.5036661 15.2459918,20.8777595 C14.161083,23.5537406 14.161083,26.4463351 15.2459918,29.1223053 C15.8243609,30.4964349 16.6200852,31.5809348 17.5602136,32.4488611 C18.4281399,33.3890293 19.512676,34.18475 20.8867694,34.7630829 C22.2608628,35.26925 23.6349562,35.5588072 25.0090604,35.5588072 C26.6723383,35.5588072 28.1911723,35.1970479 29.6374967,34.4739382 C31.1563669,33.8229943 32.3857196,32.8106603 33.3257937,31.4365307 C33.6150163,31.2917528 33.7597949,31.2195862 33.8319608,31.2195862 C34.0489795,31.2195862 34.1937574,31.2917528 34.3381278,31.4365307 L37.1589617,34.2569195 C37.3032952,34.4016974 37.3755729,34.546142 37.3755729,34.6909207 C37.3755729,34.7630873 37.3033322,34.9078652 37.2311656,35.1249218 C35.6400535,37.0051461 33.8319988,38.4514777 31.7348138,39.391588 C29.7823513,40.3317562 27.540299,40.8379232 25.009102,40.8379232 C22.7670823,40.8379232 20.6698502,40.4042947 18.8617955,39.6086465 C16.7645164,38.6684059 15.0290509,37.511295 13.7997271,36.2094037 C12.4978394,34.9801269 11.3407249,33.2446071 10.4005965,31.1473353 C8.73731859,27.4590382 8.73731859,22.5410555 10.4005965,18.8527223 C11.3407249,16.7554794 12.4978394,15.0200139 13.7997271,13.7906901 C15.0290437,12.4888024 16.7645237,11.3316879 18.8617593,10.3915595 C20.6698141,9.59583883 22.7670533,9.16224293 25.0090658,9.16224293 C27.0340669,9.16224293 28.9865836,9.52363207 30.8667897,10.2467791 C32.8196249,11.0424997 34.5551592,12.1270395 35.92922,13.5011328 L38.605201,10.8255209 C38.9665902,10.4637616 39.4731636,10.3193538 40.0515363,10.5359654 C40.5576671,10.8255209 40.8468788,11.259484 40.8468788,11.7656511 L40.8468788,11.7656312 Z" id="路径" fill="#FFFFFF" fill-rule="nonzero"></path>
                </g>
            </g>
        </g>
    </g>
</svg>