<?xml version="1.0" encoding="UTF-8"?>
<svg width="50px" height="50px" viewBox="0 0 50 50" version="1.1" xmlns="http://www.w3.org/2000/svg" xmlns:xlink="http://www.w3.org/1999/xlink">
    <!-- Generator: Sketch 57.1 (83088) - https://sketch.com -->
    <title>表情</title>
    <desc>Created with Sketch.</desc>
    <g id="xmind-图标" stroke="none" stroke-width="1" fill="none" fill-rule="evenodd">
        <g id="icon" transform="translate(-97.000000, -241.000000)" fill-rule="nonzero">
            <g id="表情" transform="translate(97.000000, 209.000000)">
                <g transform="translate(0.000000, 32.000000)" id="路径">
                    <path d="M0,25 C0,38.8071187 11.1928813,50 25,50 C38.8071187,50 50,38.8071187 50,25 C50,11.1928813 38.8071187,0 25,0 C11.1928813,0 0,11.1928813 0,25 Z" fill="#C9BC9C"></path>
                    <path d="M0,25 C0,38.8071187 11.1928813,50 25,50 C38.8071187,50 50,38.8071187 50,25 C50,11.1928813 38.8071187,0 25,0 C11.1928813,0 0,11.1928813 0,25 Z" fill="#FFBF2C"></path>
                    <path d="M12.9828125,17.1222656 C12.9828125,18.7504757 13.5236369,20.2550038 14.4015625,21.0691089 C15.279488,21.8832139 16.361137,21.8832139 17.2390625,21.0691089 C18.1169881,20.2550038 18.6578125,18.7504757 18.6578125,17.1222656 C18.6578125,15.4940556 18.1169881,13.9895274 17.2390625,13.1754224 C16.361137,12.3613174 15.279488,12.3613174 14.4015625,13.1754224 C13.5236369,13.9895274 12.9828125,15.4940556 12.9828125,17.1222656 L12.9828125,17.1222656 Z" fill="#4C4022"></path>
                    <path d="M31.7628906,17.1222656 C31.7628906,19.6122932 33.0198162,21.6308594 34.5703125,21.6308594 C36.1208088,21.6308594 37.3777344,19.6122932 37.3777344,17.1222656 C37.3777344,14.6322381 36.1208088,12.6136719 34.5703125,12.6136719 C33.0198162,12.6136719 31.7628906,14.6322381 31.7628906,17.1222656 Z" fill="#4C4022"></path>
                    <path d="M39.1289062,31.25 C39.1289062,38.3878906 32.9179688,44.171875 25.2617188,44.171875 C17.6015625,44.171875 11.3945312,38.3878906 11.3945312,31.25 L39.1289062,31.25 Z" fill="#4C4022"></path>
                    <path d="M34.584375,40.8777344 C31.8476562,42.9707031 28.6675781,44.171875 25.2753906,44.171875 C21.9054687,44.171875 18.7457031,42.9839844 16.0191406,40.91875 C18.5933594,40.0804688 21.8378906,39.5835937 25.3640625,39.5835937 C28.8335937,39.5835937 32.03125,40.0664062 34.584375,40.8777344 Z" fill="#E74642"></path>
                </g>
            </g>
        </g>
    </g>
</svg>