<?xml version="1.0" encoding="UTF-8"?>
<svg width="50px" height="50px" viewBox="0 0 50 50" version="1.1" xmlns="http://www.w3.org/2000/svg" xmlns:xlink="http://www.w3.org/1999/xlink">
    <!-- Generator: Sketch 57.1 (83088) - https://sketch.com -->
    <title>表情</title>
    <desc>Created with Sketch.</desc>
    <g id="xmind-图标" stroke="none" stroke-width="1" fill="none" fill-rule="evenodd">
        <g id="icon" transform="translate(-157.000000, -241.000000)" fill-rule="nonzero">
            <g id="表情" transform="translate(97.000000, 209.000000)">
                <g transform="translate(60.000000, 32.000000)">
                    <circle id="椭圆形" fill="#FFBF2C" cx="25" cy="25" r="25"></circle>
                    <path d="M11.25,18.1751521 L11.25,18.1751526 C11.25,19.9287416 12.6715637,21.3503052 14.4251526,21.3503052 C16.1787416,21.3503052 17.6003052,19.9287416 17.6003052,18.1751526 L17.6003052,18.1751526 C17.6003052,16.4215637 16.1787416,15 14.4251526,15 C12.6715637,15 11.25,16.4215637 11.25,18.1751526 L11.25,18.1751521 Z" id="路径" fill="#4C4022"></path>
                    <path d="M32.5,18.1751521 L32.5,18.1751526 C32.5,19.9287416 33.9215637,21.3503052 35.6751526,21.3503052 C37.4287416,21.3503052 38.8503052,19.9287416 38.8503052,18.1751526 L38.8503052,18.1751526 C38.8503052,16.4215637 37.4287416,15 35.6751526,15 C33.9215637,15 32.5,16.4215637 32.5,18.1751526 L32.5,18.1751521 Z" id="路径" fill="#4C4022"></path>
                    <path d="M11.1970051,30.9336773 C13.8005469,36.458224 18.9765095,40 24.7213612,40 C30.5167106,40 35.7308595,36.3952637 38.3104838,30.794852 C38.746512,29.8481355 38.4045877,28.6905288 37.547062,28.2092251 C36.6895353,27.7279238 35.6406798,28.1052005 35.2046495,29.0517671 C33.2138003,33.3743369 29.1928815,36.1540439 24.7213453,36.1540439 C20.2889554,36.1540439 16.2973592,33.4228701 14.2879023,29.1587404 C13.8438624,28.2165206 12.7920152,27.8501884 11.9385623,28.3401811 C11.0848388,28.830326 10.7529599,29.9915336 11.1969998,30.9336011 L11.1970051,30.9336773 Z" id="路径" fill="#4C4022"></path>
                </g>
            </g>
        </g>
    </g>
</svg>