<?xml version="1.0" encoding="UTF-8"?>
<svg width="50px" height="50px" viewBox="0 0 50 50" version="1.1" xmlns="http://www.w3.org/2000/svg" xmlns:xlink="http://www.w3.org/1999/xlink">
    <!-- Generator: Sketch 57.1 (83088) - https://sketch.com -->
    <title>得意</title>
    <desc>Created with Sketch.</desc>
    <g id="xmind-图标" stroke="none" stroke-width="1" fill="none" fill-rule="evenodd">
        <g id="icon" transform="translate(-337.000000, -241.000000)" fill-rule="nonzero">
            <g id="表情" transform="translate(97.000000, 209.000000)">
                <g id="得意" transform="translate(240.000000, 32.000000)">
                    <path d="M12.4717299,46.5559224 C20.184429,51.0088513 29.6868661,51.0088513 37.3995652,46.5559224 C45.1122643,42.1029934 49.8634826,33.8736413 49.8634826,24.9677835 C49.8634826,11.2005204 38.7029107,0.0399484536 24.9356476,0.0399484536 C11.1683844,0.0399484536 0.0078125,11.2005204 0.0078125,24.9677835 C0.0078125,33.8736413 4.75903079,42.1029934 12.4717299,46.5559224 Z" id="路径" fill="#FFBF2C"></path>
                    <path d="M24.1485713,10.719565 C25.9418858,11.2270854 27.7499076,11.1628481 28.8915255,10.5510522 C30.0331434,9.93925625 30.3349043,8.87285575 29.68313,7.75358099 C29.0313558,6.63430624 27.5250744,5.63221564 25.7317266,5.12481294 C23.938412,4.61729249 22.1303903,4.68152984 20.9887724,5.29332576 C19.8471545,5.90512167 19.5453935,6.97152217 20.1971678,8.09079693 C20.8489421,9.21007168 22.3552235,10.2121623 24.1485713,10.719565 L24.1485713,10.719565 Z" id="路径" fill="#FFE966"></path>
                    <path d="M10.7088434,28.060567 C8.9462529,28.0935212 7.52530278,29.5144713 7.49234858,31.2770619 L13.9665754,31.2770619 C13.9440031,29.4939909 12.4920573,28.0604241 10.7088434,28.060567 L10.7088434,28.060567 Z M39.1624517,28.060567 C38.2984474,28.060567 37.4698306,28.4037914 36.8588873,29.0147346 C36.2479441,29.6256779 35.9047197,30.4542947 35.9047197,31.318299 L42.4201836,31.318299 C42.4201836,29.5191033 40.9616474,28.060567 39.1624517,28.060567 L39.1624517,28.060567 Z" id="形状" fill="#EF8E5E"></path>
                    <path d="M5.01812178,14.5347938 C10.6740848,13.2575622 16.5567897,13.3849854 22.1521424,14.9059278 C23.0291154,15.1384512 23.926974,15.2834899 24.8325548,15.3389175 C26.4733473,15.324506 28.1041358,15.0816226 29.6779156,14.617268 C34.6789281,13.4432225 39.8930929,13.528236 44.8531733,14.8646907 L44.6057506,17.5244845 C43.9047197,17.5244845 43.6779156,17.875 43.47173,18.5141753 C42.4201836,21.875 43.3274001,27.6481959 35.5335857,26.9677835 C30.4201836,26.5141753 28.9562661,25.1121134 26.5232764,18.9471649 C26.2964723,18.4110825 26.172761,17.5451031 24.9768847,17.5863402 C24.3170909,17.5863402 23.7191527,17.7306701 23.5129671,18.8853093 C23.1212146,20.9471649 20.1521424,26.9471649 14.1521424,26.9265464 C8.85317332,26.9265464 6.83255477,24.1636598 6.58513209,18.1018041 C6.58513209,17.3595361 5.90471972,17.2152062 5.49234858,17.1945876 L5.01812178,14.5347938 Z" id="路径" fill="#4C4022"></path>
                    <path d="M14.2139981,13.6275773 L10.5026579,26.2667526 C11.6406431,26.6991686 12.8528798,26.9023759 14.0696682,26.8646907 L17.9253383,14.0811856 C16.6882249,13.8956186 15.4511115,13.7512887 14.2139981,13.6275773 L14.2139981,13.6275773 Z M37.2655445,13.7925258 C35.9711264,13.7470544 34.6751317,13.8022031 33.3892558,13.9574742 L30.172761,25.2358247 C31.150241,26.0148685 32.3172316,26.52009 33.5542043,26.6997423 L37.2655445,13.7925258 Z" id="形状" fill="#737891"></path>
                    <path d="M23.8016269,41.3595361 C22.1343233,41.356888 20.5184746,40.7818787 19.2243073,39.7306701 C18.8295492,39.3836597 18.7667912,38.7919408 19.0799774,38.3698454 C19.2456722,38.1631612 19.4873086,38.0315292 19.7508181,38.0044032 C20.0143276,37.9772772 20.277713,38.0569217 20.4820393,38.2255155 C21.9493753,39.4289977 23.9529588,39.7445227 25.7191527,39.0502577 C27.4849825,38.3138758 28.7418627,36.7135004 29.0387403,34.8234536 C29.0792969,34.5634831 29.2217046,34.330363 29.4344952,34.1756062 C29.6472857,34.0208494 29.9129419,33.9571959 30.172761,33.9987113 C30.43154,34.0389102 30.6630325,34.1821332 30.814513,34.3957595 C30.9659934,34.6093858 31.0245641,34.8752262 30.9768847,35.132732 C30.4710859,38.7002151 27.4046986,41.3436525 23.8016269,41.318299 L23.8016269,41.3595361 Z" id="路径" fill="#702049"></path>
                </g>
            </g>
        </g>
    </g>
</svg>