<?xml version="1.0" encoding="UTF-8"?>
<svg width="50px" height="50px" viewBox="0 0 50 50" version="1.1" xmlns="http://www.w3.org/2000/svg" xmlns:xlink="http://www.w3.org/1999/xlink">
    <!-- Generator: Sketch 57.1 (83088) - https://sketch.com -->
    <title>表情</title>
    <desc>Created with Sketch.</desc>
    <g id="xmind-图标" stroke="none" stroke-width="1" fill="none" fill-rule="evenodd">
        <g id="icon" transform="translate(-457.000000, -241.000000)" fill-rule="nonzero">
            <g id="表情" transform="translate(97.000000, 209.000000)">
                <g transform="translate(360.000000, 32.000000)">
                    <path d="M25,50 C11.1954512,49.9914734 0,38.8045488 0,25 C0,11.1954512 11.1954512,0 25,0 C28.3253712,0 31.4972684,0.64802143 34.3963259,1.82469328 C43.5453471,5.5337627 50,14.5122821 50,24.9999802 C50,38.8045488 38.8045488,50 25,50 Z" id="路径" fill="#FFBF2C"></path>
                    <path d="M10.6768088,23.4615385 C8.81267511,23.4615385 7.30769231,25.0078129 7.30769231,26.9230769 L14.0459385,26.9230769 C14.0459385,25.0165922 12.5324042,23.4615385 10.676822,23.4615385 L10.6768088,23.4615385 Z M40.083877,23.4615385 C38.2197433,23.4615385 36.7147605,25.0078129 36.7147605,26.9230769 L43.4615385,26.9230769 C43.4529874,25.0165922 41.9394526,23.4615385 40.0838704,23.4615385 L40.083877,23.4615385 Z" id="形状" fill="#E88B5C"></path>
                    <path d="M14.3616808,17.4556186 C14.3616808,16.1538443 15.4314689,15.0972097 16.7494485,15.0972097 C18.067428,15.0972097 19.1372162,16.1538443 19.1372162,17.4556186 C19.1372162,18.013522 19.5908071,18.4615385 20.1556582,18.4615385 C20.7205067,18.4615385 21.1741003,18.0135246 21.1741003,17.4556186 C21.1741003,15.0464884 19.1885688,13.0769231 16.7408963,13.0769231 C14.3017759,13.0769231 12.3076923,15.0380414 12.3076923,17.4556186 C12.3076923,18.013522 12.7612832,18.4615385 13.3261344,18.4615385 C13.9080998,18.4615385 14.3616874,18.0135246 14.3616874,17.4556186 M33.660714,13.0769231 C31.2215937,13.0769231 29.2275101,15.0380414 29.2275101,17.4556186 C29.2275101,18.013522 29.681101,18.4615385 30.2459521,18.4615385 C30.8108006,18.4615385 31.2643942,18.0135246 31.2643942,17.4556186 C31.2643942,16.1538443 32.3341823,15.0972097 33.6521619,15.0972097 C34.9701414,15.0972097 36.0399296,16.1538443 36.0399296,17.4556186 C36.0399296,18.013522 36.4935205,18.4615385 37.0583716,18.4615385 C37.6232201,18.4615385 38.0768137,18.0135246 38.0768137,17.4556186 C38.0939303,15.0464884 36.099841,13.0769231 33.6607207,13.0769231" id="形状" stroke="#4C4022" fill="#4C4022"></path>
                    <path d="M25.388895,43.4615385 C18.1623157,43.4615385 12.3076923,37.6088832 12.3076923,30.3846154 L38.4615385,30.3846154 C38.4700511,37.6088305 32.6154743,43.4615385 25.388895,43.4615385 Z" id="路径" fill="#FFFFFF"></path>
                    <path d="M13.4615385,36.1538462 C13.8061494,36.8297391 14.2196676,37.473445 14.6934884,38.0769231 L36.0757557,38.0769231 C36.5495771,37.4734468 36.963096,36.8297391 37.3076923,36.1538462 L13.4615385,36.1538462 L13.4615385,36.1538462 Z" id="路径" fill="#E6E6E6"></path>
                    <path d="M25.3846132,44.6153846 C17.7456498,44.6153846 11.5384615,38.4325402 11.5384615,30.8425748 C11.5384615,29.9556543 12.2672067,29.2307692 13.1588501,29.2307692 L37.6103629,29.2307692 C38.5020064,29.2307692 39.2307604,29.9556543 39.2307604,30.8425748 C39.239325,38.4325665 33.0235567,44.6153846 25.3845999,44.6153846 L25.3846132,44.6153846 Z M13.1588236,30.5611268 C13.0045013,30.5611268 12.8844727,30.6805196 12.8844727,30.8340245 C12.8844727,37.6906158 18.4915249,43.2679284 25.3845886,43.2679284 C32.2776921,43.2679284 37.8847045,37.6905763 37.8847045,30.8340245 C37.8847045,30.6805196 37.764676,30.5611268 37.6103537,30.5611268 L13.1588408,30.5611268 L13.1588236,30.5611268 Z" id="形状" stroke="#4C4022" fill="#4C4022"></path>
                </g>
            </g>
        </g>
    </g>
</svg>