<?xml version="1.0" encoding="UTF-8"?>
<svg width="50px" height="50px" viewBox="0 0 50 50" version="1.1" xmlns="http://www.w3.org/2000/svg" xmlns:xlink="http://www.w3.org/1999/xlink">
    <!-- Generator: Sketch 57.1 (83088) - https://sketch.com -->
    <title>编组 19</title>
    <desc>Created with Sketch.</desc>
    <g id="xmind-图标" stroke="none" stroke-width="1" fill="none" fill-rule="evenodd">
        <g id="icon" transform="translate(-157.000000, -581.000000)">
            <g id="星星" transform="translate(97.000000, 549.000000)">
                <g id="编组-19" transform="translate(60.000000, 32.000000)">
                    <circle id="椭圆形" fill="#FFB30A" cx="25" cy="25" r="25"></circle>
                    <path d="M24.389777,10.9425598 C25.001525,9.68581342 26.0012614,9.68581342 26.6130094,10.9425598 L29.5557734,16.9929552 C30.1675214,18.2497015 31.78619,19.4429992 33.1533731,19.6446097 L39.7337568,20.6148017 C41.1009516,20.8164134 41.4099049,21.7825114 40.4204321,22.7608919 L35.6588435,27.4696001 C34.6693736,28.4479806 34.0514669,30.3791565 34.2844645,31.7597414 L35.4083981,38.4098473 C35.6424224,39.7914517 34.8325742,40.3881006 33.6101066,39.7351633 L27.7235795,36.5953409 C26.5011091,35.9434291 24.4995882,35.9434291 23.2771266,36.5953409 L17.3905995,39.7351633 C16.168129,40.3880977 15.358282,39.7914508 15.592308,38.4098473 L16.7162416,31.7597414 C16.9502659,30.3791624 16.3313325,28.4479747 15.3418626,27.4696001 L10.579275,22.7608919 C9.58980508,21.7825114 9.89978391,20.8174347 11.2659503,20.6148017 L17.8473624,19.6446097 C19.2145572,19.4429981 20.8332317,18.2497015 21.444962,16.9929552 L24.3897535,10.9425598 L24.389777,10.9425598 Z" id="五星备份" fill="#FFFFFF" fill-rule="nonzero"></path>
                </g>
            </g>
        </g>
    </g>
</svg>