<?xml version="1.0" encoding="UTF-8"?>
<svg width="72px" height="72px" viewBox="0 0 72 72" version="1.1" xmlns="http://www.w3.org/2000/svg" xmlns:xlink="http://www.w3.org/1999/xlink">
    <!-- Generator: Sketch 57.1 (83088) - https://sketch.com -->
    <title>file-excel</title>
    <desc>Created with Sketch.</desc>
    <g id="file-excel" stroke="none" stroke-width="1" fill="none" fill-rule="evenodd">
        <g transform="translate(6.000000, 11.000000)" fill-rule="nonzero">
            <path d="M31.2677419,0.029296875 L35.0808323,0.029296875 L35.0808323,6.31054687 C39.8920947,6.33789062 47.9791291,6.35050403 59.3419355,6.3483871 L59.4096774,53.0516129 C47.7000389,53.0510585 39.5904239,53.0507812 35.0808323,53.0507812 L35.0808323,59.9941406 L30.8922494,59.9941406 C20.5948329,58.0839844 10.2916151,56.3144531 0,54.4394531 L0,5.625 C10.419245,3.76171875 20.8484969,1.86328125 31.2677419,0.029296875 Z" id="路径" fill="#42996A"></path>
            <polygon id="路径" fill="#FFFFFF" points="35.0576269 8.3203125 57.3116491 8.3203125 57.3116491 50.8359375 35.0576269 50.8359375"></polygon>
            <path d="M34.6283261,15.0117188 L39.5768874,15.0117188 L39.5768874,20.0097656 L34.6283261,20.0097656 L34.6283261,15.0117188 L34.6283261,15.0117188 Z M42.0482673,15.0117188 L49.4682085,15.0117188 L49.4682085,20.0097656 L42.0482673,20.0097656 L42.0482673,15.0117188 Z M34.6283261,22.5058594 L39.5768874,22.5058594 L39.5768874,27.5039063 L34.6283261,27.5039063 L34.6283261,22.5058594 L34.6283261,22.5058594 Z M42.0482673,22.5058594 L49.4682085,22.5058594 L49.4682085,27.5039063 L42.0482673,27.5039063 L42.0482673,22.5058594 Z M34.6283261,30.0058594 L39.5768874,30.0058594 L39.5768874,35.0039063 L34.6283261,35.0039063 L34.6283261,30.0058594 L34.6283261,30.0058594 Z M42.0482673,30.0058594 L49.4682085,30.0058594 L49.4682085,35.0039063 L42.0482673,35.0039063 L42.0482673,30.0058594 Z M34.6283261,37.5 L39.5768874,37.5 L39.5768874,42.4980469 L34.6283261,42.4980469 L34.6283261,37.5 L34.6283261,37.5 Z M42.0482673,37.5 L49.4682085,37.5 L49.4682085,42.4980469 L42.0482673,42.4980469 L42.0482673,37.5 Z" id="形状" fill="#42996A"></path>
            <path d="M21.0183323,42.4980469 L26.7094678,42.8496094 L20.130724,30.28125 L26.535427,17.7890625 L21.1691677,18.1113281 L17.9030012,25.5292969 C17.7289604,25.8574219 17.6013304,26.2148438 17.5317141,26.578125 C17.5317141,26.9296875 17.3576733,27.2753906 17.2590501,27.6269531 L17.3112624,27.6269531 C17.2474474,27.28125 17.1546256,26.9355469 17.0385984,26.6015625 C16.9408394,26.2709685 16.8246262,25.9462301 16.6905167,25.6289062 L13.7724319,18.65625 L8.58021349,18.9316406 L14.1205136,30.375 L8.08709777,41.7949219 L13.1574876,42.0703125 L16.5222772,34.5761719 L16.6441058,34.2539062 L16.7949412,33.7558594 C16.8007426,33.5917969 16.8007426,33.421875 16.7949412,33.2578125 C16.8123453,33.1523438 16.8123453,33.0410156 16.7949412,32.9355469 C16.7949412,33.1113281 16.9051671,33.7675781 16.9167698,33.9375 C16.9573793,34.1484375 17.032797,34.3535156 17.1372215,34.5351563 L21.0183323,42.4980469 L21.0183323,42.4980469 Z" id="路径" fill="#FFFFFF"></path>
        </g>
    </g>
</svg>