<?xml version="1.0" encoding="UTF-8"?>
<svg width="64px" height="49px" viewBox="0 0 64 49" version="1.1" xmlns="http://www.w3.org/2000/svg" xmlns:xlink="http://www.w3.org/1999/xlink">
    <!-- Generator: Sketch 57.1 (83088) - https://sketch.com -->
    <title>矩形 4备份 2</title>
    <desc>Created with Sketch.</desc>
    <defs>
        <rect id="path-1" x="0" y="0" width="62" height="46.5" rx="2"></rect>
        <filter x="-2.4%" y="-3.2%" width="104.8%" height="106.5%" filterUnits="objectBoundingBox" id="filter-2">
            <feOffset dx="0" dy="0" in="SourceAlpha" result="shadowOffsetOuter1"></feOffset>
            <feGaussianBlur stdDeviation="0.5" in="shadowOffsetOuter1" result="shadowBlurOuter1"></feGaussianBlur>
            <feColorMatrix values="0 0 0 0 0.262745098   0 0 0 0 0.298039216   0 0 0 0 0.403921569  0 0 0 1 0" type="matrix" in="shadowBlurOuter1"></feColorMatrix>
        </filter>
        <linearGradient x1="-2.22044605e-14%" y1="50%" x2="100%" y2="50%" id="linearGradient-3">
            <stop stop-color="#FD6E6E" offset="0%"></stop>
            <stop stop-color="#FFA88F" offset="100%"></stop>
        </linearGradient>
    </defs>
    <g id="页面-1" stroke="none" stroke-width="1" fill="none" fill-rule="evenodd">
        <g id="司南-项目管理-交互" transform="translate(-807.000000, -421.000000)">
            <g id="right" transform="translate(612.000000, 90.000000)">
                <g id="link备份" transform="translate(196.000000, 332.000000)">
                    <g id="矩形-4备份-2">
                        <g id="矩形">
                            <use fill="black" fill-opacity="1" filter="url(#filter-2)" xlink:href="#path-1"></use>
                            <use fill="#F5F7FD" fill-rule="evenodd" xlink:href="#path-1"></use>
                        </g>
                        <path d="M18.268666,31 L16.1983454,31 L16.1983454,23.5156712 L11.0703206,23.5156712 L11.0703206,31 L9,31 L9,15 L11.0703206,15 L11.0703206,21.7368421 L16.1983454,21.7368421 L16.1983454,15 L18.268666,15 L18.268666,31 Z M29.7851086,16.7788291 L26.1859359,16.7788291 L26.1859359,31 L24.1156153,31 L24.1156153,16.7788291 L20.5164426,16.7788291 L20.5164426,15 L29.7851086,15 L29.7851086,16.7788291 L29.7851086,16.7788291 Z M41.5745605,31 L39.7726991,31 L39.7726991,19.5842697 L39.5906929,19.5842697 L37.4293692,31 L35.9915202,31 L33.8301965,19.5842697 L33.6481903,19.5842697 L33.6481903,31 L31.8463289,31 L31.8463289,15 L34.6355739,15 L36.6148914,25.5736251 L36.7968976,25.5736251 L38.7853154,15 L41.5745605,15 L41.5745605,31 L41.5745605,31 Z M53,31 L43.6403309,31 L43.6403309,15 L45.7106515,15 L45.7106515,29.2211709 L53,29.2211709 L53,31 L53,31 Z" id="html" fill="url(#linearGradient-3)" fill-rule="nonzero"></path>
                    </g>
                </g>
            </g>
        </g>
    </g>
</svg>