<?xml version="1.0" encoding="UTF-8"?>
<svg width="61px" height="50px" viewBox="0 0 61 50" version="1.1" xmlns="http://www.w3.org/2000/svg" xmlns:xlink="http://www.w3.org/1999/xlink">
    <!-- Generator: Sketch 57.1 (83088) - https://sketch.com -->
    <title>主机网盘</title>
    <desc>Created with Sketch.</desc>
    <defs>
        <linearGradient x1="50%" y1="0%" x2="50%" y2="100%" id="linearGradient-1">
            <stop stop-color="#656D83" stop-opacity="0.9" offset="0%"></stop>
            <stop stop-color="#656D83" stop-opacity="0.8" offset="29.9224029%"></stop>
            <stop stop-color="#8C95B0" offset="100%"></stop>
        </linearGradient>
    </defs>
    <g id="页面-1" stroke="none" stroke-width="1" fill="none" fill-rule="evenodd">
        <g id="new" transform="translate(-1296.000000, -160.000000)" fill-rule="nonzero">
            <g id="right" transform="translate(615.000000, 70.000000)">
                <g id="自定义二" transform="translate(681.000000, 90.000000)">
                    <g id="主机网盘">
                        <path d="M60.1688912,35.658807 L52.5122646,6.74904571 C51.6811379,2.8117904 48.0783245,0 44.7499978,0 L16.2499754,0 C12.9216621,0 9.31884874,2.81177227 8.20561336,6.47057567 L0.556626625,35.380337 C0.185542208,37.6287257 0,39.2209043 0,40.1568731 C0,45.5019657 4.43775108,50 9.70279998,50 L51.2972,50 C56.5622489,50 61,45.501934 61,40.1568731 C61,39.2183269 60.7229637,37.7189716 60.1688912,35.658807 Z M51.2972313,47.1920939 L9.70283125,47.1920939 L9.70283161,47.1920939 C5.91296592,47.2307369 2.80981504,44.1453398 2.77135831,40.3006858 C2.77135831,40.2540407 2.77135831,40.2073924 2.77135831,40.1607473 C2.77135831,39.5960705 2.77135831,39.3176005 3.05001733,38.7529281 L3.05001733,38.4744581 C3.60282848,35.3803452 6.37833065,33.1293655 9.70284635,33.1293655 L51.2972464,33.1293655 C54.6217487,33.1293655 57.397233,35.3803316 57.9500754,38.7529281 C57.9500754,39.317605 58.2287418,39.596075 58.2287418,40.1607473 L58.2287418,40.1607629 C58.2664715,44.0054396 55.2250517,47.1534699 51.4351815,47.1921312 C51.3892014,47.1924827 51.3432182,47.1924827 51.2972381,47.1921309 L51.2972313,47.1920939 Z" id="形状" fill="url(#linearGradient-1)"></path>
                        <path d="M28.0028357,10.5646886 C28.8377734,8.87452874 30.5000223,8.0313864 32.4405868,8.0313864 C34.9377734,8.0313864 37.4349779,10.0038824 37.4349779,12.5333186 C39.0972268,13.0941247 40.2028536,14.7842846 40.2028536,16.4705739 C40.2028536,19.0038761 37.9877891,20.972506 35.2123048,20.972506 L26.8972402,20.972506 C23.5689269,20.972506 20.7972536,19.00001 20.7972536,15.9058834 C20.7972536,12.8117705 23.5689403,10.5646886 26.8972402,10.5646886 L28.002867,10.5646886 L28.0028357,10.5646886 Z" id="路径" fill="#FFFFFF"></path>
                        <path d="M26.1330497,38.6654465 L12.3764166,38.6654465 C11.5520768,38.6654465 11,39.2007364 11,40 C11,40.7992679 11.5520813,41.3345535 12.3764166,41.3345535 L26.1254722,41.3345535 C26.949812,41.3345535 27.5018888,40.7992636 27.5018888,40 C27.5018888,39.2007321 26.9498076,38.6654465 26.1254722,38.6654465 L26.1330497,38.6654465 Z M50.8783099,36 C48.6775535,36 46.7528355,37.8698478 46.7528355,39.9963351 C46.7528355,42.1338214 48.6775535,44 50.8745256,44 C53.075282,44 55,42.1301565 55,40 C55,37.8661786 53.075282,36 50.8783099,36 L50.8783099,36 Z M50.8783099,41.3345578 C50.0501902,41.3345578 49.5018933,40.7992679 49.5018933,40.0000043 C49.5018933,39.2007364 50.0501902,38.6654508 50.8783099,38.6654508 C51.7026497,38.6654508 52.2509466,39.2007407 52.2509466,40.0000043 C52.2509466,40.7992722 51.7026497,41.3345578 50.8783099,41.3345578 Z" id="形状" fill="#8C95B0"></path>
                    </g>
                </g>
            </g>
        </g>
    </g>
</svg>