<?xml version="1.0" encoding="UTF-8"?>
<svg width="64px" height="49px" viewBox="0 0 64 49" version="1.1" xmlns="http://www.w3.org/2000/svg" xmlns:xlink="http://www.w3.org/1999/xlink">
    <!-- Generator: Sketch 57.1 (83088) - https://sketch.com -->
    <title>矩形 4</title>
    <desc>Created with Sketch.</desc>
    <defs>
        <rect id="path-1" x="0" y="0" width="62" height="46.5" rx="2"></rect>
        <filter x="-2.4%" y="-3.2%" width="104.8%" height="106.5%" filterUnits="objectBoundingBox" id="filter-2">
            <feOffset dx="0" dy="0" in="SourceAlpha" result="shadowOffsetOuter1"></feOffset>
            <feGaussianBlur stdDeviation="0.5" in="shadowOffsetOuter1" result="shadowBlurOuter1"></feGaussianBlur>
            <feColorMatrix values="0 0 0 0 0.262745098   0 0 0 0 0.298039216   0 0 0 0 0.403921569  0 0 0 1 0" type="matrix" in="shadowBlurOuter1"></feColorMatrix>
        </filter>
        <polygon id="path-3" points="3.7037037e-06 0.0107777778 24.9166667 0.0107777778 24.9166667 24.9259181 3.7037037e-06 24.9259181"></polygon>
    </defs>
    <g id="页面-1" stroke="none" stroke-width="1" fill="none" fill-rule="evenodd">
        <g id="司南-项目管理-交互" transform="translate(-1295.000000, -291.000000)">
            <g id="right" transform="translate(612.000000, 90.000000)">
                <g id="axure" transform="translate(684.000000, 202.000000)">
                    <g id="矩形-4">
                        <g id="矩形">
                            <use fill="black" fill-opacity="1" filter="url(#filter-2)" xlink:href="#path-1"></use>
                            <use fill="#F5F7FD" fill-rule="evenodd" xlink:href="#path-1"></use>
                        </g>
                        <g id="编组" transform="translate(19.000000, 11.000000)">
                            <g transform="translate(0.000000, 0.026259)">
                                <mask id="mask-4" fill="white">
                                    <use xlink:href="#path-3"></use>
                                </mask>
                                <g id="Clip-2"></g>
                                <path d="M4.61952222,0.0191814815 L4.61952222,24.9080704 C4.51937407,24.9135519 4.42507778,24.9247 4.3305963,24.9247 C3.41667037,24.9247 2.5000037,24.9274407 1.58607778,24.9247 C0.630485185,24.9219593 3.7037037e-06,24.2885519 3.7037037e-06,23.3274778 C0.00274444444,16.0968852 0.00548518519,8.8664037 0.0111518519,1.63303333 C0.0111518519,0.66632963 0.655522222,0.024662963 1.61952222,0.0219222222 C2.51389259,0.0191814815 3.41118889,0.0191814815 4.30555926,0.0191814815 L4.61952222,0.0191814815 Z M17.5416704,19.199737 C18.0084111,19.199737 18.4305593,19.210737 18.8527074,19.1968481 C19.5944852,19.1719593 20.3139667,19.0608481 20.9861148,18.7052185 C22.5583,17.8718852 22.4945222,15.3247741 21.1334111,14.524663 C20.6555222,14.2441444 20.1416333,14.0774778 19.5972259,14.0579593 C18.497263,14.0192185 17.3943741,14.0274407 16.2944111,13.999663 C16.0166333,13.9914407 15.9250778,14.0635889 15.9250778,14.3552556 C15.9360407,17.0608481 15.9333,19.7635519 15.9333,22.4691074 C15.9333,22.574737 15.9417074,22.6802185 15.9471889,22.7969593 L17.5389296,22.7969593 C17.5416704,21.5968852 17.5416704,20.4190704 17.5416704,19.199737 L17.5416704,19.199737 Z M15.3916333,22.8163296 C14.5972259,21.4914037 13.8305963,20.2163667 13.0639667,18.9385889 C13.2723,18.8635148 13.4610778,18.8079593 13.6416333,18.7302556 C15.4250778,17.9691074 15.3221889,15.824737 14.4833741,14.9441074 C13.9333,14.3691444 13.2415963,14.0996259 12.4806333,14.0608852 C11.333337,14.0024037 10.1805593,14.024663 9.03052222,13.9968852 C8.7723,13.9914407 8.72496667,14.088663 8.72496667,14.3218481 C8.73337407,17.0469593 8.73063333,19.7719222 8.73063333,22.4968852 C8.73063333,22.5913667 8.7415963,22.6885889 8.74726296,22.7913296 L10.3444852,22.7913296 L10.3444852,19.0968852 C10.6304852,19.0968852 10.8861519,19.1135148 11.1388926,19.0913667 C11.3695222,19.0691074 11.4888556,19.1608111 11.5944852,19.3607741 C12.1750778,20.4441074 12.7666333,21.5191815 13.3611148,22.5941074 C13.408263,22.6802185 13.5000037,22.7997 13.5721889,22.8024407 C14.1555222,22.824737 14.7415963,22.8163296 15.3916333,22.8163296 L15.3916333,22.8163296 Z M6.2415963,24.9190704 L6.2415963,24.5330704 C6.24452222,21.2774407 6.24452222,18.0219222 6.24726296,14.7662926 C6.25274444,9.98577407 6.26115185,5.20521852 6.26663333,0.4247 C6.26663333,0.0274407407 6.26663333,0.0274407407 6.66941111,0.0274407407 C12.1778185,0.024662963 17.6860407,0.0301814815 23.1944481,0.0107660541 C24.1639296,0.00803333333 24.9194111,0.707996296 24.9166778,1.73851481 C24.8888926,8.93021852 24.9000407,16.1191444 24.9000407,23.3108481 C24.9000407,24.2913296 24.2777815,24.9163296 23.3000778,24.9190704 C17.7333741,24.9219593 12.1639296,24.9219593 6.59722593,24.9219593 C6.49726296,24.9190704 6.40004074,24.9190704 6.2415963,24.9190704 L6.2415963,24.9190704 Z M17.5555556,17.8885593 L17.5555556,15.3386333 C18.2445185,15.3774111 18.9221481,15.3718926 19.5833333,15.4663741 C20.1999259,15.5552259 20.5193704,15.9718926 20.5305185,16.5274481 C20.5444074,17.1385593 20.2638889,17.5830037 19.6388889,17.6997444 C18.9667407,17.8218556 18.2693704,17.8274852 17.5555556,17.8885593 M10.3444815,17.7385222 L10.3444815,15.3607815 C11.1416296,15.4051889 11.936037,15.2524111 12.7083333,15.5163 C13.1944444,15.6829667 13.4417037,16.0358185 13.4499259,16.5053 C13.4583333,17.0440778 13.2306296,17.4051889 12.7333704,17.605263 C12.5805926,17.666337 12.4139259,17.7275222 12.2527407,17.7330037 C11.6277407,17.7468926 11.0027407,17.7385222 10.3444815,17.7385222" id="Fill-1" fill="#A493E8" mask="url(#mask-4)"></path>
                            </g>
                        </g>
                    </g>
                </g>
            </g>
        </g>
    </g>
</svg>