<?xml version="1.0" encoding="UTF-8"?>
<svg width="72px" height="72px" viewBox="0 0 72 72" version="1.1" xmlns="http://www.w3.org/2000/svg" xmlns:xlink="http://www.w3.org/1999/xlink">
    <!-- Generator: Sketch 57.1 (83088) - https://sketch.com -->
    <title>file-word</title>
    <desc>Created with Sketch.</desc>
    <g id="file-word" stroke="none" stroke-width="1" fill="none" fill-rule="evenodd">
        <g transform="translate(6.000000, 11.000000)" fill-rule="nonzero">
            <path d="M31.3546875,0 L35.4327539,0 L35.4327539,5.58087891 C40.2963477,5.62322266 48.4854297,5.69841356 60,5.80645161 C59.9529688,25.8207182 59.9529688,40.402168 60,49.5508008 C59.9529688,50.491543 59.9529688,52.1391255 60,54.4935484 L35.4327539,54.489668 L35.4327539,59.9717578 L31.1994141,59.9717578 C20.7996094,58.0597266 10.3998047,56.2817578 0,54.4191211 L0,5.595 C10.4491992,3.72527344 20.9054297,1.905 31.3546875,0 Z" id="路径" fill="#396FB7"></path>
            <path d="M35.4327539,7.67636719 L57.9257227,7.67636719 L57.9257227,52.3236328 L35.4327539,52.3236328 L35.4327539,46.7426953 L53.1561914,46.7426953 L53.1561914,43.9205273 L35.4327539,43.9205273 L35.4327539,40.4633203 L53.1561914,40.4633203 L53.1561914,37.6410938 L35.4327539,37.6410938 L35.4327539,34.1838867 L53.1561914,34.1838867 L53.1561914,31.3617188 L35.4327539,31.3617188 L35.4327539,27.8339648 L53.1561914,27.8339648 L53.1561914,25.1175586 L35.4327539,25.1175586 L35.4327539,21.5898633 L53.1561914,21.5898633 L53.1561914,18.8381836 L35.4327539,18.8381836 L35.4327539,15.3457031 L53.1561914,15.3457031 L53.1561914,12.5588086 L35.4327539,12.5588086 L35.4327539,7.67636719 Z M14.1110156,20.0023242 C15.4092187,19.9247461 16.7003906,19.8683203 17.9985937,19.7977148 C18.9087305,24.5108203 19.8330469,29.2098047 20.8207617,33.9087305 C21.5898633,29.0616211 22.4435742,24.2356641 23.269043,19.4026758 C24.6307617,19.3532227 25.9924805,19.2756445 27.3541992,19.1909766 C25.809082,25.9501172 24.4614258,32.772832 22.7751562,39.4896094 C21.6392578,40.0964063 19.9529883,39.4896094 18.5841797,39.5602148 C17.6387695,34.9317773 16.5874805,30.3386719 15.7761328,25.7032031 C14.9788477,30.2116406 13.9416797,34.6777734 13.031543,39.1509961 C11.7192187,39.0804492 10.4068945,39.0028125 9.08748047,38.9111133 C7.95861328,32.772832 6.62513672,26.6698242 5.55972656,20.5173633 C6.73531156,20.4603539 7.91125431,20.4109778 9.08748047,20.3692383 C9.79306641,24.8141602 10.590293,29.2379883 11.2041211,33.69 C12.1495898,29.1251367 13.1302734,24.5672461 14.110957,20.0023242 L14.1110156,20.0023242 Z" id="形状" fill="#FFFFFF"></path>
        </g>
    </g>
</svg>