<?xml version="1.0" encoding="UTF-8"?>
<svg width="64px" height="49px" viewBox="0 0 64 49" version="1.1" xmlns="http://www.w3.org/2000/svg" xmlns:xlink="http://www.w3.org/1999/xlink">
    <!-- Generator: Sketch 57.1 (83088) - https://sketch.com -->
    <title>矩形 4</title>
    <desc>Created with Sketch.</desc>
    <defs>
        <rect id="path-1" x="0" y="0" width="62" height="46.5" rx="2"></rect>
        <filter x="-2.4%" y="-3.2%" width="104.8%" height="106.5%" filterUnits="objectBoundingBox" id="filter-2">
            <feOffset dx="0" dy="0" in="SourceAlpha" result="shadowOffsetOuter1"></feOffset>
            <feGaussianBlur stdDeviation="0.5" in="shadowOffsetOuter1" result="shadowBlurOuter1"></feGaussianBlur>
            <feColorMatrix values="0 0 0 0 0.262745098   0 0 0 0 0.298039216   0 0 0 0 0.403921569  0 0 0 1 0" type="matrix" in="shadowBlurOuter1"></feColorMatrix>
        </filter>
        <polygon id="path-3" points="0.00391959799 0.0194379397 26.7577497 0.0194379397 26.7577497 25.9908575 0.00391959799 25.9908575"></polygon>
    </defs>
    <g id="页面-1" stroke="none" stroke-width="1" fill="none" fill-rule="evenodd">
        <g id="司南-项目管理-交互" transform="translate(-807.000000, -291.000000)">
            <g id="right" transform="translate(612.000000, 90.000000)">
                <g id="脑图" transform="translate(196.000000, 202.000000)">
                    <g id="矩形-4">
                        <g id="矩形">
                            <use fill="black" fill-opacity="1" filter="url(#filter-2)" xlink:href="#path-1"></use>
                            <use fill="#F5F7FD" fill-rule="evenodd" xlink:href="#path-1"></use>
                        </g>
                        <g id="编组" transform="translate(18.000000, 10.000000)">
                            <mask id="mask-4" fill="white">
                                <use xlink:href="#path-3"></use>
                            </mask>
                            <g id="Clip-2"></g>
                            <path d="M17.2884583,19.9227646 C17.2929332,22.518355 19.4097774,24.6202721 22.023104,24.6261515 C24.6350261,24.6216766 26.7519357,22.5197595 26.7577497,19.9242997 C26.7533075,17.3287093 24.6364307,15.2267595 22.0246392,15.2209128 C19.4127171,15.225257 17.294501,17.3273048 17.2884583,19.9227646 Z M8.6456794,4.72436005 C8.65168945,7.31841533 10.7670312,9.42190025 13.3789533,9.42634246 C15.9907447,9.42036508 18.1060538,7.31841533 18.1120638,4.72436005 C18.1060538,2.13030477 15.9907447,0.0268525126 13.3789533,0.0209731156 C10.765496,0.0254479899 8.65015427,2.12890025 8.6456794,4.72436005 Z M-6.53266331e-06,19.9242997 C0.00446834171,22.5197595 2.12131256,24.6216766 4.73310402,24.6276867 C7.34502613,24.624747 9.46330754,22.5212947 9.46928492,19.9257043 C9.40088794,17.3347193 7.27372211,15.2223173 4.7346392,15.2223173 C2.12271709,15.2267595 0.00600351759,17.3273048 -6.53266331e-06,19.9242997 Z M8.16402613,7.45213894 C7.95899849,6.76836508 7.68390804,6.01916658 7.47874975,5.33679724 C4.46108392,7.24698065 2.53904372,10.7225535 2.33235025,14.4701465 C3.01919447,14.1981264 3.70447085,13.9945033 4.4596794,13.9945033 C4.6367799,11.3631791 5.99985276,8.95644799 8.16402613,7.45213894 Z M13.3789533,23.808556 C12.0083678,23.808556 10.7714734,23.6049003 9.67447588,22.921159 C9.19278995,23.6035284 8.78247337,24.0807068 8.23242312,24.5577545 C9.87963417,25.443747 11.5281191,25.9908575 13.3789533,25.9908575 C15.2312246,25.9908575 17.0834633,25.512144 18.5253201,24.5577545 C18.113599,24.0137143 17.6333829,23.6049003 17.0834633,22.9226942 C15.9178729,23.3997093 14.7524457,23.808556 13.3789533,23.808556 Z M22.2297975,14.0613651 C22.9135714,14.0613651 23.6717196,14.2665234 24.3554608,14.5370083 C24.1504332,10.8578123 22.2297975,7.51913141 19.2106618,5.67721432 C19.0039357,6.08756357 19.0039357,6.83676206 18.5253201,7.51913141 C20.6511141,8.94916407 22.023104,11.1982294 22.2297975,14.0613651 Z" id="Fill-1" fill="#8AACE7" mask="url(#mask-4)"></path>
                        </g>
                    </g>
                </g>
            </g>
        </g>
    </g>
</svg>