<?xml version="1.0" encoding="UTF-8"?>
<svg width="64px" height="49px" viewBox="0 0 64 49" version="1.1" xmlns="http://www.w3.org/2000/svg" xmlns:xlink="http://www.w3.org/1999/xlink">
    <!-- Generator: Sketch 57.1 (83088) - https://sketch.com -->
    <title>矩形 4</title>
    <desc>Created with Sketch.</desc>
    <defs>
        <rect id="path-1" x="0" y="0" width="62" height="46.5" rx="2"></rect>
        <filter x="-2.4%" y="-3.2%" width="104.8%" height="106.5%" filterUnits="objectBoundingBox" id="filter-2">
            <feOffset dx="0" dy="0" in="SourceAlpha" result="shadowOffsetOuter1"></feOffset>
            <feGaussianBlur stdDeviation="0.5" in="shadowOffsetOuter1" result="shadowBlurOuter1"></feGaussianBlur>
            <feColorMatrix values="0 0 0 0 0.262745098   0 0 0 0 0.298039216   0 0 0 0 0.403921569  0 0 0 1 0" type="matrix" in="shadowBlurOuter1"></feColorMatrix>
        </filter>
    </defs>
    <g id="页面-1" stroke="none" stroke-width="1" fill="none" fill-rule="evenodd">
        <g id="司南-项目管理-交互" transform="translate(-685.000000, -291.000000)">
            <g id="right" transform="translate(612.000000, 90.000000)">
                <g id="流程图" transform="translate(74.000000, 202.000000)">
                    <g id="矩形-4" transform="translate(0.000000, -0.000000)">
                        <g id="矩形">
                            <use fill="black" fill-opacity="1" filter="url(#filter-2)" xlink:href="#path-1"></use>
                            <use fill="#F5F7FD" fill-rule="evenodd" xlink:href="#path-1"></use>
                        </g>
                        <g id="编组-3" transform="translate(10.075000, 7.750000)">
                            <rect id="矩形" fill="#7E869A" x="0" y="10.85" width="19.375" height="9.3" rx="2"></rect>
                            <path d="M41.625,24.8 C42.1772847,24.8 42.625,25.2477153 42.625,25.8 L42.625,30 C42.625,30.5522847 42.1772847,31 41.625,31 L28.125,31 C27.5727153,31 27.125,30.5522847 27.125,30 L27.125,25.8 C27.125,25.2477153 27.5727153,24.8 28.125,24.8 L41.625,24.8 Z M41.625,12.4 C42.1772847,12.4 42.625,12.8477153 42.625,13.4 L42.625,17.6 C42.625,18.1522847 42.1772847,18.6 41.625,18.6 L28.125,18.6 C27.5727153,18.6 27.125,18.1522847 27.125,17.6 L27.125,13.4 C27.125,12.8477153 27.5727153,12.4 28.125,12.4 L41.625,12.4 Z M41.625,0 C42.1772847,-2.12475365e-16 42.625,0.44771525 42.625,1 L42.625,5.2 C42.625,5.75228475 42.1772847,6.2 41.625,6.2 L28.125,6.2 C27.5727153,6.2 27.125,5.75228475 27.125,5.2 L27.125,1 C27.125,0.44771525 27.5727153,1.01453063e-16 28.125,0 L41.625,0 Z" id="矩形-5" fill="#C3C8D4"></path>
                            <path d="M27.125,3.1 L25.25,3.1 C24.1454305,3.1 23.25,3.9954305 23.25,5.1 L23.25,25.9 C23.25,27.0045695 24.1454305,27.9 25.25,27.9 L27.125,27.9 L27.125,27.9" id="矩形" stroke="#E2E4E9"></path>
                            <path d="M19.375,15.5 L27.125,15.5" id="路径-2" stroke="#E2E4E9"></path>
                        </g>
                    </g>
                </g>
            </g>
        </g>
    </g>
</svg>