<?xml version="1.0" encoding="UTF-8"?>
<svg width="64px" height="49px" viewBox="0 0 64 49" version="1.1" xmlns="http://www.w3.org/2000/svg" xmlns:xlink="http://www.w3.org/1999/xlink">
    <!-- Generator: Sketch 57.1 (83088) - https://sketch.com -->
    <title>矩形 4</title>
    <desc>Created with Sketch.</desc>
    <defs>
        <rect id="path-1" x="0" y="0" width="62" height="46.5" rx="2"></rect>
        <filter x="-2.4%" y="-3.2%" width="104.8%" height="106.5%" filterUnits="objectBoundingBox" id="filter-2">
            <feOffset dx="0" dy="0" in="SourceAlpha" result="shadowOffsetOuter1"></feOffset>
            <feGaussianBlur stdDeviation="0.5" in="shadowOffsetOuter1" result="shadowBlurOuter1"></feGaussianBlur>
            <feColorMatrix values="0 0 0 0 0.262745098   0 0 0 0 0.298039216   0 0 0 0 0.403921569  0 0 0 1 0" type="matrix" in="shadowBlurOuter1"></feColorMatrix>
        </filter>
    </defs>
    <g id="页面-1" stroke="none" stroke-width="1" fill="none" fill-rule="evenodd">
        <g id="司南-项目管理" transform="translate(-685.000000, -417.000000)">
            <g id="right" transform="translate(615.000000, 70.000000)">
                <g id="流程图" transform="translate(71.000000, 348.000000)">
                    <g id="矩形-4">
                        <g id="矩形">
                            <use fill="black" fill-opacity="1" filter="url(#filter-2)" xlink:href="#path-1"></use>
                            <use fill="#F5F7FD" fill-rule="evenodd" xlink:href="#path-1"></use>
                        </g>
                        <g id="编组-3" transform="translate(12.075000, 15.750000)" fill="#71CA9F">
                            <path d="M34.7727291,9.54547815 C34.7727291,11.0137336 33.4227666,11.8636974 31.9091076,11.8636974 L29.3181873,11.8636974 L29.3181873,3.1363226 L31.9091076,3.1363226 C33.4227666,3.1363226 34.7727291,4.00905808 34.7727291,5.45454182 L34.7727291,9.54547815 Z M31.9091076,0 L26.7273468,0 C26.3209718,0 26.1872979,0.186947686 26.1818447,0.545462172 L26.1818447,14.4545378 C26.1818447,14.8674647 26.3066097,15 26.7273468,15 L32.0454981,15 C34.7756455,15 37.9091516,13.4201033 37.9091516,9.8181593 L37.9091516,5.04545019 C37.9091516,1.46661748 34.6392949,0 31.9091076,0 L31.9091076,0 Z M24.705719,14.2962146 L21.4090956,9.54547815 C21.4295502,9.53850682 21.6612223,9.55278907 21.6818167,9.54547815 C23.0937222,9.03734959 24.8182192,7.41967981 24.8182192,5.04545019 C24.8182192,3.57717476 24.4508757,2.25178179 23.6020305,1.4258082 C22.638428,0.462205632 22.0006605,0 19.499988,0 L13.6363346,0 C13.2189732,0 13.0824229,0.136370537 13.0909323,0.681792759 L13.0909323,14.4545378 C13.1022383,14.8130723 13.2234876,15 13.6363346,15 L15.6818527,15 C16.0947796,15 16.2272549,14.8146903 16.2272549,14.4545378 L16.2272549,3.1363226 L19.499988,3.1363226 C20.6929655,3.1363226 21.6818167,3.98894307 21.6818167,5.18182072 C21.6818167,6.26000091 20.624191,7.09094831 19.499988,7.09094831 L18.272773,7.09094831 C17.8972996,7.06557984 17.5909603,7.29161895 17.5909603,7.63637054 L17.5909603,9.54547815 C17.5909603,10.1878599 17.6863817,10.3731896 17.8932447,10.6484076 L20.3709457,14.3420976 C20.6922664,14.8238189 20.9948504,15 21.5455061,15 L24.4091276,15 C24.8454853,15 24.9121825,14.6173555 24.705719,14.2962146 L24.705719,14.2962146 Z M5.99996404,7.49996005 L3.27273308,7.49996005 L3.27273308,3.1363226 L5.99996404,3.1363226 C7.7894603,3.1363226 8.58706914,4.13290418 8.58706914,5.32596161 C8.58706914,6.47303617 7.7894603,7.49996005 5.99996404,7.49996005 L5.99996404,7.49996005 Z M5.72726292,0 L0.545422222,0 C0.129379225,0 0,0.203726835 0,0.545462172 L0,14.4545378 C0.0113259256,14.8118139 0.132495352,15 0.545422222,15 L2.72723096,15 C3.14015783,15 3.27273308,14.8146903 3.27273308,14.4545378 L3.27273308,10.6363625 L5.72726292,10.6363625 C9.65028791,10.6363625 11.7273069,8.50706855 11.7273069,5.31815131 C11.7273069,2.1522255 9.67321941,0 5.72726292,0 L5.72726292,0 Z" id="Fill-1"></path>
                        </g>
                    </g>
                </g>
            </g>
        </g>
    </g>
</svg>