<?xml version="1.0" encoding="UTF-8"?>
<svg width="72px" height="72px" viewBox="0 0 72 72" version="1.1" xmlns="http://www.w3.org/2000/svg" xmlns:xlink="http://www.w3.org/1999/xlink">
    <!-- Generator: Sketch 57.1 (83088) - https://sketch.com -->
    <title>file-ppt</title>
    <desc>Created with Sketch.</desc>
    <g id="file-ppt" stroke="none" stroke-width="1" fill="none" fill-rule="evenodd">
        <g transform="translate(6.000000, 11.000000)" fill-rule="nonzero" id="路径">
            <path d="M31.2537839,0 L35.0819184,0 L35.0819184,6.27939791 C39.8927005,6.30761994 47.9825987,6.30803569 59.3516129,6.28064516 L59.4199119,53.0322581 C47.7073107,53.0301945 39.5969748,53.0291627 35.088904,53.0291627 L35.088904,59.971778 L30.8975159,59.971778 C20.6006725,58.0597366 10.2968434,56.2888053 0,54.4190969 L0,5.59501412 C10.4155994,3.73236123 20.8311988,1.83443086 31.2537839,0 Z" fill="#E86647"></path>
            <path d="M35.0819184,8.37488238 L57.3521604,8.37488238 L57.3521604,50.9266228 L35.0819184,50.9266228 L35.0819184,45.3457196 L51.2816334,45.3457196 L51.2816334,42.5587959 L35.0819184,42.5587959 L35.0819184,39.0310442 L51.2816334,39.0310442 L51.2816334,36.2793979 L35.088904,36.2793979 L35.088904,32.1801505 C37.7644067,33.0338664 40.8101488,33.0126999 43.19924,31.3546566 C45.7839293,29.7671684 47.1321592,26.7474129 47.3556998,23.7347131 L38.4699571,23.7347131 C38.4699571,20.7008467 38.5048853,17.6669803 38.4140719,14.6401693 C37.303354,14.85889 36.1996218,15.0987771 35.0958896,15.3457196 L35.0819184,8.37488238 Z" fill="#FFFFFF"></path>
            <path d="M39.8181869,13.1655691 C44.6436792,13.5282185 48.4500087,17.4572363 48.7039296,22.3377234 C45.7420154,22.373001 42.7801011,22.3377234 39.8112012,22.3377234 C39.8181869,19.2685795 39.8181869,16.2276576 39.8181869,13.1655691 L39.8181869,13.1655691 Z" fill="#E86647"></path>
            <path d="M10.8277526,18.4289746 C14.4952172,18.6124177 18.9311029,16.9332079 22.0047875,19.7695202 C24.9108166,23.4242709 24.1423954,30.1340546 19.8322513,32.3142051 C18.3023947,33.125588 16.5420117,33.0197554 14.8794278,32.9562559 L14.8794278,41.1406397 L10.8626808,40.79492 C10.7578961,33.3443085 10.7439248,25.8866416 10.8277526,18.4289746 L10.8277526,18.4289746 Z" fill="#FFFFFF"></path>
            <path d="M14.8375138,22.2036688 C16.1647867,22.1472248 17.8133994,21.8932267 18.7075622,23.1843838 C19.4450337,24.6124258 19.478635,26.3066811 18.7983756,27.7634054 C18.0299544,29.1745061 16.2905284,29.0545625 14.9422986,29.2238946 C14.8025856,26.888523 14.8165569,24.5531514 14.8375138,22.2036688 Z" fill="#D24625"></path>
        </g>
    </g>
</svg>