<?xml version="1.0" encoding="UTF-8"?>
<svg width="50px" height="50px" viewBox="0 0 50 50" version="1.1" xmlns="http://www.w3.org/2000/svg" xmlns:xlink="http://www.w3.org/1999/xlink">
    <!-- Generator: Sketch 57.1 (83088) - https://sketch.com -->
    <title>25%</title>
    <desc>Created with Sketch.</desc>
    <g id="xmind-图标" stroke="none" stroke-width="1" fill="none" fill-rule="evenodd">
        <g id="icon" transform="translate(-157.000000, -361.000000)" fill-rule="nonzero">
            <g id="任务" transform="translate(97.000000, 329.000000)">
                <g id="25%" transform="translate(60.000000, 32.000000)">
                    <path d="M49.9862193,25.8540132 C49.9908001,25.722421 49.9941315,25.5904128 49.9962137,25.457988 L49.9962137,25.3917756 C49.9987122,25.2568521 49.9999808,25.1215121 49.9999808,24.985756 L49.9999808,24.9858424 C50.0082125,18.3577921 47.3749889,11.9997135 42.6829272,7.31837068 L42.6829275,7.31837104 C41.7398691,6.37505023 40.7232836,5.5082235 39.6427782,4.72609245 C39.3641863,4.52495662 39.0818466,4.3296506 38.7957589,4.14017503 L38.79576,4.14017572 C38.5197904,3.95668487 38.2401098,3.77883832 37.9568924,3.60674725 C37.6150033,3.39853231 37.2679085,3.19927042 36.9156084,3.00896156 C36.6807417,2.88403247 36.4433765,2.75910339 36.2041373,2.64042075 C35.7252422,2.4005569 35.2378108,2.1752679 34.7418423,1.96455438 L34.7418414,1.96455401 C31.6649379,0.661924646 28.3567782,-0.00625233762 25.0154872,0 L24.9973725,0 L24.9973736,0 C11.1908354,0.00089067034 -0.00087450362,11.1940027 0,25.000541 C0.000846581968,38.8070792 11.1939587,49.9987891 25.0004969,49.9979146 C38.4733495,49.9970885 49.5220156,39.3197257 49.9832538,25.8547436 L49.9862193,25.8540132 Z" id="路径" fill="#29CB5D"></path>
                    <path d="M39.8648418,39.8493804 L39.8648423,39.8493799 C31.6601833,48.0503159 18.3578524,48.0501909 10.1533185,39.8490996 C1.94878457,31.6480386 1.94890963,18.3515411 10.1535989,10.1506051 C14.0890678,6.21693709 19.4252881,4.00486875 24.9907902,4 L24.9907902,25.8693709 L46,25.8693709 L46,25.8693562 C45.7966321,31.1370615 43.6044874,36.1322293 39.8648232,39.8493536 L39.8648418,39.8493804 Z" id="路径" fill="#FFFFFF"></path>
                </g>
            </g>
        </g>
    </g>
</svg>